<?xml version="1.0" encoding="utf-8"?>
<!-- Generator: Adobe Illustrator 27.5.0, SVG Export Plug-In . SVG Version: 6.00 Build 0)  -->
<svg version="1.1" xmlns="http://www.w3.org/2000/svg" xmlns:xlink="http://www.w3.org/1999/xlink" x="0px" y="0px"
	 viewBox="0 0 500 500" style="enable-background:new 0 0 500 500;" xml:space="preserve">
<g id="BACKGROUND_1">
	<g>
		<g>
			<defs>
				<rect id="SVGID_1_" width="500" height="500"/>
			</defs>
			<clipPath id="SVGID_00000176021251860653302940000015618632807283944888_">
				<use xlink:href="#SVGID_1_"  style="overflow:visible;"/>
			</clipPath>
			<g style="clip-path:url(#SVGID_00000176021251860653302940000015618632807283944888_);">
				<rect x="-125" style="fill:#1D072B;" width="750" height="500"/>
			</g>
			
				<circle style="clip-path:url(#SVGID_00000176021251860653302940000015618632807283944888_);fill:#241132;" cx="78.033" cy="90.195" r="46"/>
			
				<circle style="clip-path:url(#SVGID_00000176021251860653302940000015618632807283944888_);fill:#241132;" cx="170.033" cy="63.194" r="25"/>
			
				<circle style="clip-path:url(#SVGID_00000176021251860653302940000015618632807283944888_);fill:#241132;" cx="-10.967" cy="51.194" r="22"/>
			
				<circle style="clip-path:url(#SVGID_00000176021251860653302940000015618632807283944888_);fill:#241132;" cx="-42.967" cy="172.195" r="70"/>
			
				<circle style="clip-path:url(#SVGID_00000176021251860653302940000015618632807283944888_);fill:#241132;" cx="-13.967" cy="447.194" r="43"/>
			
				<circle style="clip-path:url(#SVGID_00000176021251860653302940000015618632807283944888_);fill:#241132;" cx="319.033" cy="458.194" r="22.5"/>
			
				<circle style="clip-path:url(#SVGID_00000176021251860653302940000015618632807283944888_);fill:#241132;" cx="465.033" cy="380.194" r="50"/>
			
				<circle style="clip-path:url(#SVGID_00000176021251860653302940000015618632807283944888_);fill:#241132;" cx="397.033" cy="456.194" r="31"/>
			
				<circle style="clip-path:url(#SVGID_00000176021251860653302940000015618632807283944888_);fill:#241132;" cx="506.033" cy="293.194" r="28"/>
			
				<circle style="clip-path:url(#SVGID_00000176021251860653302940000015618632807283944888_);fill:#241132;" cx="500" cy="47.194" r="27.033"/>
			
				<circle style="clip-path:url(#SVGID_00000176021251860653302940000015618632807283944888_);fill:#241132;" cx="252.699" cy="28.194" r="17"/>
		</g>
		<g>
			<defs>
				<rect id="SVGID_00000101061910580837991370000012223455785204050597_" width="500" height="500"/>
			</defs>
			<clipPath id="SVGID_00000069370523024237323840000006214057630006606495_">
				<use xlink:href="#SVGID_00000101061910580837991370000012223455785204050597_"  style="overflow:visible;"/>
			</clipPath>
			<g style="clip-path:url(#SVGID_00000069370523024237323840000006214057630006606495_);">
				<path style="fill:#351738;" d="M454.87,59.415c-65.4-63.076-198.611-12.33-225.737,10.533c0,0,98.638-22.787,147.245,12.508
					c0,0-137.825-32.621-245.798,62.552S4.509,326.33,15.137,374.194c0,0,32.772-103.884,84.081-138.911
					c0,0-128.665,170.967-9.862,219.039s205.502-36.47,205.502-36.47s-86.845,24.009-160.072-3.752
					c0,0,137.023,22.445,254.278-73.593c121.238-99.3,105.525-221.962,105.525-221.962s-28.485,97.909-80.453,139.287
					C414.136,257.833,512.389,114.889,454.87,59.415z"/>
				<path style="fill:#4C2042;" d="M402.527,108.339c-48.416-46.695-147.031-9.128-167.113,7.797c0,0,73.022-16.869,109.005,9.26
					c0,0-102.032-24.15-181.964,46.307C82.522,242.16,69.125,305.936,76.992,341.37c0,0,24.261-76.905,62.245-102.835
					c0,0-95.25,126.567-7.301,162.154s152.133-26.998,152.133-26.998s-64.291,17.774-118.501-2.777
					c0,0,101.438,16.616,188.242-54.481c89.752-73.512,78.12-164.318,78.12-164.318s-21.087,72.482-59.559,103.114
					C372.371,255.227,445.108,149.406,402.527,108.339z"/>
				<path style="fill:#562856;" d="M364.286,144.081c-36.007-34.728-109.35-6.788-124.284,5.799c0,0,54.307-12.546,81.069,6.887
					c0,0-75.883-17.96-135.33,34.439c-59.447,52.4-69.411,99.831-63.56,126.184c0,0,18.043-57.195,46.293-76.48
					c0,0-70.839,94.13-5.43,120.597c65.409,26.467,113.144-20.079,113.144-20.079s-47.814,13.219-88.131-2.066
					c0,0,75.441,12.358,139.998-40.518c66.75-54.672,58.099-122.206,58.099-122.206s-15.683,53.906-44.295,76.687
					C341.859,253.324,395.955,174.624,364.286,144.081z"/>
				
					<ellipse transform="matrix(0.7762 -0.6305 0.6305 0.7762 -99.8459 213.8966)" style="fill:#7D3D74;" cx="251.392" cy="247.601" rx="69.922" ry="42.848"/>
				
					<ellipse transform="matrix(0.7762 -0.6305 0.6305 0.7762 -99.8459 213.8966)" style="fill:#FFDF68;" cx="251.392" cy="247.601" rx="59.069" ry="36.197"/>
				
					<ellipse transform="matrix(0.7762 -0.6305 0.6305 0.7762 -99.8459 213.8963)" style="fill:#FCBA30;" cx="251.392" cy="247.601" rx="49.068" ry="30.069"/>
				
					<ellipse transform="matrix(0.7762 -0.6305 0.6305 0.7762 -99.846 213.8973)" style="fill:#F79731;" cx="251.392" cy="247.601" rx="35.029" ry="21.466"/>
				
					<ellipse transform="matrix(0.7762 -0.6305 0.6305 0.7762 -99.8459 213.8958)" style="fill:#F47F31;" cx="251.392" cy="247.601" rx="20.249" ry="12.408"/>
			</g>
			<polygon style="clip-path:url(#SVGID_00000069370523024237323840000006214057630006606495_);fill:#FFFFFF;" points="
				121.043,306.759 122.898,313.017 129.156,314.872 122.898,316.727 121.043,322.985 119.188,316.727 112.93,314.872 
				119.188,313.017 			"/>
			<polygon style="clip-path:url(#SVGID_00000069370523024237323840000006214057630006606495_);fill:#FFFFFF;" points="
				88.888,214.226 90.514,219.713 96.001,221.339 90.514,222.966 88.888,228.452 87.261,222.966 81.775,221.339 87.261,219.713 			
				"/>
			<polygon style="clip-path:url(#SVGID_00000069370523024237323840000006214057630006606495_);fill:#FFFFFF;" points="
				267.454,79.66 268.699,83.861 272.9,85.107 268.699,86.352 267.454,90.553 266.208,86.352 262.008,85.107 266.208,83.861 			"/>
			<polygon style="clip-path:url(#SVGID_00000069370523024237323840000006214057630006606495_);fill:#FFFFFF;" points="
				480.121,37.836 481.366,42.037 485.567,43.282 481.366,44.528 480.121,48.729 478.875,44.528 474.674,43.282 478.875,42.037 			
				"/>
			<polygon style="clip-path:url(#SVGID_00000069370523024237323840000006214057630006606495_);fill:#FFFFFF;" points="
				239.71,154.092 241.565,160.35 247.823,162.205 241.565,164.06 239.71,170.318 237.855,164.06 231.597,162.205 237.855,160.35 
							"/>
			<polygon style="clip-path:url(#SVGID_00000069370523024237323840000006214057630006606495_);fill:#FFFFFF;" points="
				52.177,428.226 54.033,434.484 60.29,436.339 54.033,438.194 52.177,444.452 50.322,438.194 44.064,436.339 50.322,434.484 			
				"/>
			<polygon style="clip-path:url(#SVGID_00000069370523024237323840000006214057630006606495_);fill:#FFFFFF;" points="
				481.033,215.195 482.888,221.452 489.146,223.307 482.888,225.163 481.033,231.42 479.177,225.163 472.92,223.307 
				479.177,221.452 			"/>
			<polygon style="clip-path:url(#SVGID_00000069370523024237323840000006214057630006606495_);fill:#FFFFFF;" points="
				442.177,449.937 444.033,456.194 450.29,458.05 444.033,459.905 442.177,466.163 440.322,459.905 434.064,458.05 
				440.322,456.194 			"/>
			<polygon style="clip-path:url(#SVGID_00000069370523024237323840000006214057630006606495_);fill:#B073AF;" points="
				343.221,246.27 345.076,252.528 351.334,254.383 345.076,256.238 343.221,262.496 341.366,256.238 335.108,254.383 
				341.366,252.528 			"/>
			<polygon style="clip-path:url(#SVGID_00000069370523024237323840000006214057630006606495_);fill:#B073AF;" points="
				224.177,45.603 226.033,51.861 232.29,53.716 226.033,55.572 224.177,61.829 222.322,55.572 216.064,53.716 222.322,51.861 			
				"/>
			<polygon style="clip-path:url(#SVGID_00000069370523024237323840000006214057630006606495_);fill:#B073AF;" points="
				316.92,397.694 320.033,408.194 330.533,411.307 320.033,414.42 316.92,424.92 313.807,414.42 303.307,411.307 313.807,408.194 
							"/>
			<polygon style="clip-path:url(#SVGID_00000069370523024237323840000006214057630006606495_);fill:#FBB657;" points="
				259.511,357.603 260.909,362.319 265.624,363.716 260.909,365.114 259.511,369.829 258.113,365.114 253.398,363.716 
				258.113,362.319 			"/>
			<polygon style="clip-path:url(#SVGID_00000069370523024237323840000006214057630006606495_);fill:#FBB657;" points="
				48.931,41.745 51.115,49.112 58.482,51.297 51.115,53.481 48.931,60.848 46.746,53.481 39.379,51.297 46.746,49.112 			"/>
			<polygon style="clip-path:url(#SVGID_00000069370523024237323840000006214057630006606495_);fill:#FBB657;" points="
				459.635,186.684 461.033,191.399 465.748,192.797 461.033,194.195 459.635,198.91 458.237,194.195 453.522,192.797 
				458.237,191.399 			"/>
			<polygon style="clip-path:url(#SVGID_00000069370523024237323840000006214057630006606495_);fill:#EE62A3;" points="
				115.301,453.684 117.766,461.998 126.081,464.463 117.766,466.928 115.301,475.243 112.836,466.928 104.522,464.463 
				112.836,461.998 			"/>
			<polygon style="clip-path:url(#SVGID_00000069370523024237323840000006214057630006606495_);fill:#EE62A3;" points="
				468.498,424.88 470.963,433.194 479.277,435.659 470.963,438.125 468.498,446.439 466.033,438.125 457.718,435.659 
				466.033,433.194 			"/>
			<polygon style="clip-path:url(#SVGID_00000069370523024237323840000006214057630006606495_);fill:#FBB657;" points="
				71.568,189.95 74.033,198.264 82.347,200.73 74.033,203.195 71.568,211.509 69.103,203.195 60.788,200.73 69.103,198.264 			"/>
			<polygon style="clip-path:url(#SVGID_00000069370523024237323840000006214057630006606495_);fill:#EE62A3;" points="
				429.92,33.082 431.775,39.339 438.033,41.194 431.775,43.05 429.92,49.307 428.064,43.05 421.807,41.194 428.064,39.339 			"/>
			<polygon style="clip-path:url(#SVGID_00000069370523024237323840000006214057630006606495_);fill:#EE62A3;" points="
				24.243,20.226 25.493,24.444 29.711,25.694 25.493,26.945 24.243,31.163 22.993,26.945 18.775,25.694 22.993,24.444 			"/>
			<g style="clip-path:url(#SVGID_00000069370523024237323840000006214057630006606495_);">
				<path style="fill:#FFFFFF;" d="M169.366,276.357c-1.94,0-1.94,3.008,0,3.008C171.305,279.365,171.305,276.357,169.366,276.357z"
					/>
				<path style="fill:#FFFFFF;" d="M136.033,295.571c-1.234,0-1.234,1.914,0,1.914C137.267,297.485,137.267,295.571,136.033,295.571
					z"/>
				<path style="fill:#FFFFFF;" d="M160.699,301.434c-1.411,0-1.411,2.188,0,2.188C162.11,303.621,162.11,301.434,160.699,301.434z"
					/>
				<path style="fill:#FFFFFF;" d="M145.445,331.782c-0.121-0.101-0.242-0.203-0.363-0.304c-0.956-0.801-2.534-0.331-2.534,1.05
					s1.578,1.85,2.534,1.05c0.121-0.101,0.242-0.202,0.363-0.304C145.859,332.927,145.859,332.129,145.445,331.782z"/>
				<path style="fill:#FFFFFF;" d="M176.488,325.405c-0.057-0.055-0.113-0.109-0.169-0.164c-0.332-0.321-0.912-0.356-1.239,0
					c-0.243,0.264-0.422,0.57-0.237,0.925c0.062,0.119,0.147,0.216,0.237,0.314c0.327,0.356,0.907,0.321,1.239,0
					c0.057-0.055,0.113-0.109,0.169-0.164C176.738,326.076,176.738,325.647,176.488,325.405z"/>
				<path style="fill:#FFFFFF;" d="M196.65,312.725c0.05,0.208,0.1,0.417,0.151,0.625c0.135,0.56,0.995,0.56,1.13,0l0.151-0.625
					C198.37,311.529,196.362,311.529,196.65,312.725z"/>
				<path style="fill:#FFFFFF;" d="M164.699,344.023c-1.511,0-1.511,2.344,0,2.344S166.211,344.023,164.699,344.023z"/>
				<path style="fill:#FFFFFF;" d="M163.224,326.003c-0.378-0.307-0.717-0.369-1.191-0.413c-1.208-0.112-1.208,1.987,0,1.875
					c0.474-0.044,0.814-0.106,1.191-0.413C163.516,326.816,163.516,326.24,163.224,326.003z"/>
				<path style="fill:#FFFFFF;" d="M124.206,335.018c-0.166,0.095-0.333,0.191-0.499,0.287c-0.418,0.24-0.418,0.873,0,1.113
					c0.166,0.096,0.333,0.191,0.499,0.287c0.641,0.368,1.469-0.099,1.469-0.843C125.676,335.117,124.847,334.65,124.206,335.018z"/>
				<path style="fill:#FFFFFF;" d="M109.366,320.728c-1.461,0-1.461,2.266,0,2.266C110.827,322.994,110.827,320.728,109.366,320.728
					z"/>
				<path style="fill:#FFFFFF;" d="M116.699,288.101c-1.411,0-1.411,2.188,0,2.188C118.11,290.288,118.11,288.101,116.699,288.101z"
					/>
				<path style="fill:#FFFFFF;" d="M158.699,245.395c-0.67,0-1.377,0.738-1.092,1.434c0.082,0.2,0.163,0.399,0.245,0.599
					c0.34,0.832,1.355,0.832,1.695,0c0.082-0.2,0.163-0.399,0.245-0.599C160.076,246.133,159.369,245.395,158.699,245.395z"/>
				<path style="fill:#FFFFFF;" d="M230.502,186.479c-0.355,0.144-0.654,0.311-0.972,0.522c-0.53,0.353-0.676,1.09-0.202,1.564
					c0.474,0.474,1.212,0.328,1.564-0.202c0.212-0.318,0.378-0.617,0.522-0.972C231.618,186.892,231.002,186.276,230.502,186.479z"
					/>
				<path style="fill:#FFFFFF;" d="M252.49,179.113c-0.337,0.126-0.601,0.459-0.581,0.81c-0.304,0.064-0.582,0.24-0.752,0.53
					c-0.338,0.577-0.099,1.215,0.413,1.577c0.893,0.63,2.325,0.008,2.557-1.055C254.339,180.005,253.66,178.678,252.49,179.113z"/>
				<path style="fill:#FFFFFF;" d="M269.366,155.258c-1.637,0-1.637,2.539,0,2.539C271.003,157.797,271.003,155.258,269.366,155.258
					z"/>
				<path style="fill:#FFFFFF;" d="M291.366,175.925c-1.637,0-1.637,2.539,0,2.539C293.003,178.464,293.003,175.925,291.366,175.925
					z"/>
				<path style="fill:#FFFFFF;" d="M213.366,178.335c-1.108,0-1.108,1.719,0,1.719C214.474,180.054,214.474,178.335,213.366,178.335
					z"/>
				<path style="fill:#FFFFFF;" d="M219.76,155.853c-0.166-0.095-0.333-0.191-0.499-0.287c-0.731-0.42-1.675,0.112-1.675,0.961
					c0,0.849,0.944,1.381,1.675,0.961c0.166-0.096,0.333-0.191,0.499-0.287C220.267,156.911,220.267,156.145,219.76,155.853z"/>
				<path style="fill:#FFFFFF;" d="M240.699,135.827c-1.763,0-1.763,2.734,0,2.734C242.463,138.562,242.463,135.827,240.699,135.827
					z"/>
				<path style="fill:#FFFFFF;" d="M365.366,235.082c-1.864,0-1.864,2.891,0,2.891C367.23,237.973,367.23,235.082,365.366,235.082z"
					/>
				<path style="fill:#FFFFFF;" d="M373.366,261.944c-1.612,0-1.612,2.5,0,2.5C374.978,264.444,374.978,261.944,373.366,261.944z"/>
				<path style="fill:#FFFFFF;" d="M356.033,287.965c-0.807,0-1.337,0.638-1.397,1.397c-0.014,0.175,0.007,0.327,0.029,0.5
					c0.094,0.739,0.551,1.367,1.367,1.367s1.273-0.628,1.367-1.367c0.022-0.173,0.043-0.325,0.029-0.5
					C357.369,288.603,356.839,287.965,356.033,287.965z"/>
				<path style="fill:#FFFFFF;" d="M321.366,282.963c-1.159,0-1.159,1.797,0,1.797C322.525,284.76,322.525,282.963,321.366,282.963z
					"/>
				<path style="fill:#FFFFFF;" d="M340.157,273.6l-0.479,0.32c-0.452,0.302-0.452,0.912,0,1.214l0.479,0.321
					c0.69,0.461,1.616-0.151,1.616-0.928C341.774,273.751,340.847,273.139,340.157,273.6z"/>
				<path style="fill:#FFFFFF;" d="M326.033,231.668c-0.513,0-1.039,0.558-0.829,1.088c0.121,0.304,0.216,0.586,0.428,0.839
					c0.187,0.222,0.615,0.222,0.801,0c0.212-0.253,0.308-0.534,0.428-0.839C327.071,232.227,326.545,231.668,326.033,231.668z"/>
				<path style="fill:#FFFFFF;" d="M352.278,178.95c-0.721-0.721-1.841-0.329-2.155,0.569c-0.09,0.258-0.181,0.517-0.271,0.776
					c-0.215,0.615,0.467,1.296,1.081,1.081c0.259-0.09,0.517-0.181,0.776-0.271C352.606,180.79,352.999,179.671,352.278,178.95z"/>
				<path style="fill:#FFFFFF;" d="M355.883,206.416c-0.321-0.21-0.713-0.21-1.034,0c-0.674,0.264-0.856,1.15-0.726,1.788
					c0.251,1.235,2.235,1.235,2.486,0C356.739,207.565,356.557,206.68,355.883,206.416z"/>
				<path style="fill:#FFFFFF;" d="M293.366,88.709c-1.486,0-1.486,2.305,0,2.305C294.852,91.013,294.852,88.709,293.366,88.709z"/>
				<path style="fill:#FFFFFF;" d="M304.033,74.22c-2.116,0-2.116,3.281,0,3.281S306.149,74.22,304.033,74.22z"/>
				<path style="fill:#FFFFFF;" d="M319.366,90.371c-0.222-0.013-0.444-0.026-0.667-0.039c-0.252-0.015-0.252,0.406,0,0.391
					c0.222-0.013,0.444-0.026,0.667-0.039C319.567,90.672,319.567,90.383,319.366,90.371z"/>
				<path style="fill:#FFFFFF;" d="M344.699,91.905c-1.662,0-1.662,2.578,0,2.578C346.362,94.484,346.362,91.905,344.699,91.905z"/>
				<path style="fill:#FFFFFF;" d="M218.032,90.416l-0.337-0.47c-0.529-0.737-1.461-0.737-1.99,0l-0.337,0.47
					c-0.703,0.978,0.246,2.322,1.332,2.322C217.785,92.738,218.734,91.394,218.032,90.416z"/>
				<path style="fill:#FFFFFF;" d="M244.654,70.573c-0.116-0.106-0.233-0.212-0.349-0.318c-0.84-0.765-2.267-0.26-2.267,0.939
					c0,1.199,1.427,1.704,2.267,0.939c0.116-0.106,0.233-0.212,0.349-0.318C244.997,71.504,244.997,70.885,244.654,70.573z"/>
				<path style="fill:#FFFFFF;" d="M235.366,102.53c-0.856,0-0.856,1.328,0,1.328C236.222,103.859,236.222,102.53,235.366,102.53z"
					/>
				<path style="fill:#FFFFFF;" d="M259.366,104.042c-1.486,0-1.486,2.305,0,2.305C260.852,106.347,260.852,104.042,259.366,104.042
					z"/>
				<path style="fill:#FFFFFF;" d="M278.614,103.533c-0.269-0.199-0.54-0.316-0.869-0.38c-0.899-0.175-1.805,0.394-1.805,1.375
					c0,0.981,0.905,1.549,1.805,1.375c0.329-0.064,0.6-0.181,0.869-0.38C279.349,104.981,279.349,104.075,278.614,103.533z"/>
				<path style="fill:#FFFFFF;" d="M290.033,225.551c-1.259,0-1.259,1.953,0,1.953S291.292,225.551,290.033,225.551z"/>
				<path style="fill:#FFFFFF;" d="M296.033,235.984c-1.562,0-1.562,2.422,0,2.422S297.594,235.984,296.033,235.984z"/>
				<path style="fill:#FFFFFF;" d="M277.883,255.195c-0.174-0.44-0.479-0.695-0.923-0.848c-1.171-0.404-1.594,1.309-0.832,1.817
					c-0.167,0.385,0.049,0.929,0.568,0.923c0.677-0.009,1.093-0.532,1.171-1.168c0.005-0.038,0.004-0.043,0.005-0.058
					c0.005-0.005,0.011-0.013,0.026-0.053C277.97,255.616,277.957,255.381,277.883,255.195z"/>
				<path style="fill:#FFFFFF;" d="M252.699,270.885c-1.26,0-1.26,1.953,0,1.953C253.959,272.838,253.959,270.885,252.699,270.885z"
					/>
				<path style="fill:#FFFFFF;" d="M221.366,270.22c-2.116,0-2.116,3.281,0,3.281S223.482,270.22,221.366,270.22z"/>
				<path style="fill:#FFFFFF;" d="M230.419,249.361c0.009,0.168,0.028,0.333,0.048,0.5c0.137,1.155,1.66,1.155,1.797,0
					c0.02-0.167,0.04-0.332,0.048-0.5C232.375,248.14,230.357,248.14,230.419,249.361z"/>
				<path style="fill:#FFFFFF;" d="M230.982,229.203c-0.278,0.127-0.556,0.253-0.834,0.38c-0.652,0.297-0.682,1.257-0.221,1.718
					c0.46,0.46,1.421,0.431,1.718-0.221c0.127-0.278,0.253-0.556,0.38-0.834C232.349,229.531,231.696,228.878,230.982,229.203z"/>
				<path style="fill:#FFFFFF;" d="M245.057,232.215c-0.111-0.253-0.222-0.505-0.333-0.758c-0.23-0.525-1.152-0.525-1.383,0
					c-0.111,0.253-0.222,0.505-0.333,0.758c-0.196,0.447-0.174,0.816-0.087,1.286c0.205,1.104,2.018,1.104,2.222,0
					C245.231,233.031,245.253,232.661,245.057,232.215z"/>
				<path style="fill:#FFFFFF;" d="M249.366,219.668c-0.484-0.031-0.875,0.251-1.278,0.48c-0.68,0.386-0.792,1.355-0.245,1.902
					c0.547,0.547,1.515,0.435,1.902-0.245c0.229-0.403,0.512-0.794,0.48-1.278C250.193,220.036,249.857,219.701,249.366,219.668z"/>
				<path style="fill:#FFFFFF;" d="M264.699,223.493c-1.335,0-1.335,2.07,0,2.07C266.034,225.563,266.034,223.493,264.699,223.493z"
					/>
				<path style="fill:#FFFFFF;" d="M274.033,220.316c-1.134,0-1.134,1.758,0,1.758C275.166,222.073,275.166,220.316,274.033,220.316
					z"/>
				<path style="fill:#FFFFFF;" d="M75.025,174.638c-0.606-0.393-1.201-0.551-1.892-0.291c-0.834,0.314-0.834,1.381,0,1.695
					c0.691,0.26,1.286,0.102,1.892-0.291C75.44,175.482,75.44,174.907,75.025,174.638z"/>
				<path style="fill:#FFFFFF;" d="M92.033,170.846c-1.31,0-1.31,2.031,0,2.031C93.342,172.877,93.342,170.846,92.033,170.846z"/>
				<path style="fill:#FFFFFF;" d="M97.366,191.434c-1.411,0-1.411,2.188,0,2.188C98.777,193.622,98.777,191.434,97.366,191.434z"/>
				<path style="fill:#FFFFFF;" d="M112.699,193.395c-1.461,0-1.461,2.266,0,2.266C114.16,195.661,114.16,193.395,112.699,193.395z"
					/>
				<path style="fill:#FFFFFF;" d="M106.699,212.159c-1.335,0-1.335,2.07,0,2.07C108.034,214.23,108.034,212.159,106.699,212.159z"
					/>
				<path style="fill:#FFFFFF;" d="M106.033,242.65c-1.562,0-1.562,2.422,0,2.422C107.594,245.072,107.594,242.65,106.033,242.65z"
					/>
				<path style="fill:#FFFFFF;" d="M68.475,266.902c-0.475,0.418-0.664,0.957-0.885,1.531c-0.248,0.644,0.687,0.915,1.035,0.436
					c0.332-0.457,0.645-0.882,0.731-1.455C69.433,266.899,68.895,266.532,68.475,266.902z"/>
				<path style="fill:#FFFFFF;" d="M77.076,244.904c-0.195,0.25-0.389,0.5-0.584,0.75c-0.233,0.3,0.115,0.648,0.414,0.414
					c0.25-0.195,0.5-0.389,0.75-0.584C78.076,245.157,77.403,244.484,77.076,244.904z"/>
				<path style="fill:#FFFFFF;" d="M60.049,246.081c-0.17,0.09-0.339,0.18-0.509,0.27c-0.636,0.337-0.636,1.349,0,1.687
					c0.17,0.09,0.339,0.18,0.509,0.27c0.853,0.452,1.94-0.105,1.94-1.113S60.902,245.629,60.049,246.081z"/>
				<path style="fill:#FFFFFF;" d="M58.699,216.555c-2.544,0-2.544,3.945,0,3.945C61.243,220.5,61.243,216.555,58.699,216.555z"/>
				<path style="fill:#FFFFFF;" d="M38.918,207.617c-0.038-0.156-0.076-0.312-0.122-0.466c-0.222-0.756-1.305-0.756-1.527,0
					c-0.045,0.155-0.083,0.31-0.122,0.466c-0.141,0.577,0.275,1.162,0.885,1.162C38.642,208.779,39.059,208.195,38.918,207.617z"/>
				<path style="fill:#FFFFFF;" d="M40.033,173.649c-1.134,0-1.134,1.758,0,1.758C41.166,175.407,41.166,173.649,40.033,173.649z"/>
				<path style="fill:#FFFFFF;" d="M61.891,141.336c-0.292-0.237-0.563-0.347-0.932-0.417c-0.616-0.116-1.236,0.267-1.236,0.942
					s0.62,1.058,1.236,0.942c0.369-0.07,0.639-0.18,0.932-0.417C62.183,142.149,62.183,141.573,61.891,141.336z"/>
				<path style="fill:#FFFFFF;" d="M62.033,108.101c-0.968,0-1.291,0.967-1.328,1.76c-0.08,1.713,2.736,1.713,2.656,0
					C63.324,109.068,63.001,108.101,62.033,108.101z"/>
				<path style="fill:#FFFFFF;" d="M54.033,91.571c-0.445,0.052-0.889,0.104-1.333,0.156c-1.03,0.121-1.03,1.481,0,1.602
					c0.444,0.052,0.889,0.104,1.333,0.156C55.265,93.629,55.265,91.426,54.033,91.571z"/>
				<path style="fill:#FFFFFF;" d="M32.033,71.53c-0.781,0-1.293,0.741-1.124,1.475c0.036,0.157,0.081,0.31,0.125,0.465
					c0.285,0.988,1.711,0.988,1.996,0c0.045-0.155,0.089-0.308,0.125-0.465C33.326,72.271,32.814,71.53,32.033,71.53z"/>
				<path style="fill:#FFFFFF;" d="M26.033,45.534c-2.141,0-2.141,3.32,0,3.32C28.174,48.855,28.174,45.534,26.033,45.534z"/>
				<path style="fill:#FFFFFF;" d="M9.522,41.963c-0.212-0.038-0.424-0.075-0.635-0.113c-1.135-0.202-1.135,1.558,0,1.356
					c0.212-0.038,0.424-0.075,0.635-0.113C10.083,42.993,10.083,42.063,9.522,41.963z"/>
				<path style="fill:#FFFFFF;" d="M9.542,17.221c-0.074-0.069-0.134-0.077-0.18-0.023c-0.612-0.473-1.6-0.233-1.6,0.663
					s0.988,1.136,1.6,0.663c0.047,0.054,0.107,0.046,0.18-0.023C10.176,18.314,10.176,17.408,9.542,17.221z"/>
				<path style="fill:#FFFFFF;" d="M46.033,15.434c-1.017,0-1.363,1.163-0.773,1.867c0.101,0.121,0.203,0.242,0.304,0.363
					c0.218,0.261,0.721,0.261,0.939,0c0.101-0.121,0.203-0.242,0.304-0.363C47.396,16.597,47.05,15.434,46.033,15.434z"/>
				<path style="fill:#FFFFFF;" d="M82.033,32.826c-1.335,0-1.335,2.07,0,2.07C83.368,34.896,83.368,32.826,82.033,32.826z"/>
				<path style="fill:#FFFFFF;" d="M72.153,61.074c-0.644-0.644-1.558-0.259-1.861,0.491c-0.103,0.255-0.206,0.51-0.309,0.765
					c-0.202,0.5,0.413,1.115,0.913,0.913c0.255-0.103,0.51-0.206,0.765-0.309C72.413,62.632,72.798,61.718,72.153,61.074z"/>
				<path style="fill:#FFFFFF;" d="M54.033,73.145c-0.065,0-0.065,0.1,0,0.1C54.097,73.244,54.097,73.145,54.033,73.145z"/>
				<path style="fill:#FFFFFF;" d="M64.926,36.14c-0.368-0.251-0.696-0.514-1.021-0.817c-0.992-0.924-1.897,1.065-0.741,1.273
					c0.492,0.089,0.943,0.204,1.416,0.365C65.087,37.135,65.326,36.412,64.926,36.14z"/>
				<path style="fill:#FFFFFF;" d="M70.512,82.517c-0.438,0.178-0.751,0.411-1.115,0.709c-0.9,0.739,0.532,2.171,1.271,1.271
					c0.298-0.364,0.532-0.677,0.709-1.115C71.569,82.908,70.986,82.324,70.512,82.517z"/>
				<path style="fill:#FFFFFF;" d="M100.282,75.624c-0.964-0.265-1.636,1.133-0.811,1.648c0.005,0.024,0.01,0.049,0.015,0.073
					c0.113,0.543,0.98,0.543,1.092,0l0.021-0.1C101.128,76.778,101.088,75.846,100.282,75.624z"/>
				<path style="fill:#FFFFFF;" d="M90.555,108.222c-0.149-0.265-0.298-0.53-0.447-0.795c-0.698-1.241-2.416,0.477-1.176,1.176
					c0.265,0.149,0.53,0.298,0.795,0.447C90.259,109.35,90.855,108.754,90.555,108.222z"/>
				<path style="fill:#FFFFFF;" d="M106.384,134.655c-0.265,0.149-0.53,0.298-0.795,0.447c-0.495,0.279-0.574,0.984-0.178,1.38
					c0.396,0.396,1.102,0.317,1.38-0.178c0.149-0.265,0.298-0.53,0.448-0.795C107.548,134.961,106.933,134.346,106.384,134.655z"/>
				<path style="fill:#FFFFFF;" d="M140.033,108.592c-1.637,0-1.637,2.539,0,2.539C141.67,111.131,141.67,108.592,140.033,108.592z"
					/>
				<path style="fill:#FFFFFF;" d="M175.548,68.535c-0.2-0.082-0.4-0.163-0.599-0.245c-0.576-0.235-1.187,0.35-1.187,0.904
					c0,0.554,0.611,1.139,1.187,0.904c0.2-0.082,0.399-0.163,0.599-0.245C176.195,69.589,176.195,68.8,175.548,68.535z"/>
				<path style="fill:#FFFFFF;" d="M192.863,78.334c-0.182,0.101-0.318,0.193-0.522,0.227c-1.03,0.174-1.256,1.591-0.595,2.252
					c0.661,0.661,2.079,0.435,2.253-0.595c0.034-0.204,0.126-0.34,0.227-0.522C194.715,78.819,193.742,77.846,192.863,78.334z"/>
				<path style="fill:#FFFFFF;" d="M213.366,70.218c-1.259,0-1.259,1.953,0,1.953C214.625,72.171,214.625,70.218,213.366,70.218z"/>
				<path style="fill:#FFFFFF;" d="M198.86,56.611c-0.2-0.082-0.399-0.163-0.599-0.245c-0.528-0.216-1.088,0.321-1.088,0.829
					s0.56,1.044,1.088,0.829c0.2-0.082,0.399-0.163,0.599-0.245C199.434,57.544,199.434,56.845,198.86,56.611z"/>
				<path style="fill:#FFFFFF;" d="M216.699,31.219c-1.325,0-1.756,1.761-0.661,2.439c0.005,0.003,0.01,0.006,0.015,0.009
					c0.341,0.438,0.951,0.438,1.292,0c0.005-0.003,0.01-0.006,0.014-0.009C218.455,32.98,218.024,31.219,216.699,31.219z"/>
				<path style="fill:#FFFFFF;" d="M242.033,24.885c-1.26,0-1.26,1.953,0,1.953C243.292,26.838,243.292,24.885,242.033,24.885z"/>
				<path style="fill:#FFFFFF;" d="M243.074,54.554c-0.17-0.09-0.339-0.18-0.509-0.27c-0.698-0.37-1.587,0.086-1.587,0.911
					s0.889,1.281,1.587,0.911c0.17-0.09,0.339-0.18,0.509-0.27C243.557,55.579,243.557,54.81,243.074,54.554z"/>
				<path style="fill:#FFFFFF;" d="M283.773,47.586c-0.296,0.041-0.548,0.098-0.802,0.267c-0.503,0.334-0.503,1.015,0,1.349
					c0.254,0.169,0.506,0.226,0.802,0.267c0.616,0.086,1.236-0.245,1.236-0.942C285.009,47.831,284.39,47.5,283.773,47.586z"/>
				<path style="fill:#FFFFFF;" d="M186.033,45.356c-1.511,0-1.511,2.344,0,2.344C187.544,47.7,187.544,45.356,186.033,45.356z"/>
				<path style="fill:#FFFFFF;" d="M144.699,82.787c-1.385,0-1.385,2.148,0,2.148C146.085,84.935,146.085,82.787,144.699,82.787z"/>
				<path style="fill:#FFFFFF;" d="M172.033,87.041c-1.058,0-1.058,1.641,0,1.641S173.091,87.041,172.033,87.041z"/>
				<path style="fill:#FFFFFF;" d="M21.252,89.975c-0.399-0.399-1.178-0.239-1.306,0.345c-0.047,0.217-0.259,0.423-0.385,0.598
					c-0.316,0.438,0.31,1.064,0.748,0.748c0.176-0.126,0.381-0.338,0.598-0.386C21.49,91.154,21.65,90.374,21.252,89.975z"/>
				<path style="fill:#FFFFFF;" d="M20.533,432.45c-0.29,0.021-0.57,0.069-0.853,0.13c-1.272,0.276-1.272,2.285,0,2.561
					c0.283,0.061,0.563,0.109,0.853,0.13C22.352,435.406,22.352,432.316,20.533,432.45z"/>
				<path style="fill:#FFFFFF;" d="M44.033,456.159c-1.335,0-1.335,2.07,0,2.07C45.368,458.23,45.368,456.159,44.033,456.159z"/>
				<path style="fill:#FFFFFF;" d="M38.014,248.943c-0.094-0.342-0.323-0.638-0.628-0.817c-0.53-0.311-1.223-0.22-1.657,0.214
					c-0.654,0.654-0.376,1.644,0.234,2.113c0.009,0.37,0.263,0.733,0.734,0.75c0.88,0.031,1.454-0.881,1.346-1.697
					C38.077,249.318,38.068,249.13,38.014,248.943z"/>
				<path style="fill:#FFFFFF;" d="M63.404,344.529c-0.489-0.836-1.708-1.019-2.393-0.308c-0.33,0.343-0.661,0.686-0.991,1.029
					c-0.781,0.811,0.013,1.997,1.045,1.796l1.428-0.278C63.471,346.576,63.873,345.329,63.404,344.529z"/>
				<path style="fill:#FFFFFF;" d="M26.99,384.14c-1.219-0.335-1.761,1.214-0.953,1.893c0.001,0.004,0.002,0.007,0.003,0.01
					c0.194,0.652,1.124,0.652,1.318,0.001c0.183-0.134,0.327-0.308,0.396-0.558C27.912,384.911,27.564,384.298,26.99,384.14z"/>
				<path style="fill:#FFFFFF;" d="M78.699,393.063c-1.889,0-1.889,2.93,0,2.93C80.589,395.993,80.589,393.063,78.699,393.063z"/>
				<path style="fill:#FFFFFF;" d="M103.701,421.194c0.019,0.222,0.039,0.445,0.059,0.667c0.031,0.352,0.516,0.352,0.547,0
					c0.02-0.222,0.039-0.444,0.059-0.667C104.402,420.767,103.663,420.767,103.701,421.194z"/>
				<path style="fill:#FFFFFF;" d="M89.991,453.447c-0.204,0.301-0.409,0.577-0.523,0.925c-0.137,0.415,0.306,0.858,0.721,0.721
					c0.348-0.115,0.624-0.319,0.925-0.523C92.219,453.819,90.741,452.342,89.991,453.447z"/>
				<path style="fill:#FFFFFF;" d="M131.704,444.158c-1.248,0.731-1.314,2.692,0,3.407c0.553,0.3,1.09,0.49,1.696,0.161
					c0.722-0.392,1.273-0.984,1.273-1.864C134.672,444.367,132.996,443.401,131.704,444.158z"/>
				<path style="fill:#FFFFFF;" d="M157.638,468.922c-0.769-0.769-1.858-0.31-2.22,0.586c-0.103,0.255-0.206,0.51-0.309,0.765
					c-0.26,0.645,0.532,1.438,1.177,1.177c0.255-0.103,0.51-0.206,0.765-0.309C157.948,470.78,158.407,469.691,157.638,468.922z"/>
				<path style="fill:#FFFFFF;" d="M133.669,489.209c-0.256,0.088-0.456,0.206-0.648,0.348c-0.187,0.035-0.374,0.069-0.561,0.104
					c-0.861,0.16-0.861,1.573,0,1.733c0.187,0.035,0.374,0.069,0.561,0.104c0.192,0.142,0.392,0.26,0.648,0.348
					c0.85,0.292,1.731-0.471,1.731-1.318C135.4,489.681,134.519,488.917,133.669,489.209z"/>
				<path style="fill:#FFFFFF;" d="M103.404,477.823c-0.059-0.052-0.118-0.104-0.177-0.156c-0.775-0.685-2.078-0.25-2.078,0.861
					c0,1.111,1.303,1.546,2.078,0.861c0.059-0.052,0.118-0.104,0.177-0.157C103.793,478.888,103.793,478.167,103.404,477.823z"/>
				<path style="fill:#FFFFFF;" d="M280.703,378.159c-0.098-0.306-0.212-0.583-0.393-0.85c-0.478-0.702-1.411-0.702-1.889,0
					c-0.181,0.267-0.295,0.544-0.393,0.85c-0.277,0.865,0.464,1.755,1.337,1.755C280.239,379.914,280.98,379.024,280.703,378.159z"
					/>
				<path style="fill:#FFFFFF;" d="M307.721,351.254l-0.479-0.321c-0.69-0.461-1.616,0.151-1.616,0.928
					c0,0.777,0.926,1.389,1.616,0.928l0.479-0.32C308.173,352.166,308.173,351.556,307.721,351.254z"/>
				<path style="fill:#FFFFFF;" d="M314.033,309.866c-1.713,0-1.713,2.656,0,2.656S315.746,309.866,314.033,309.866z"/>
				<path style="fill:#FFFFFF;" d="M284.699,342.806c-1.36,0-1.36,2.109,0,2.109C286.06,344.916,286.06,342.806,284.699,342.806z"/>
				<path style="fill:#FFFFFF;" d="M252.033,333.102c-1.839,0-1.839,2.852,0,2.852S253.872,333.102,252.033,333.102z"/>
				<path style="fill:#FFFFFF;" d="M225.366,358.982c-1.133,0-1.133,1.758,0,1.758C226.5,360.74,226.5,358.982,225.366,358.982z"/>
				<path style="fill:#FFFFFF;" d="M243.366,376.472c-0.932,0-0.932,1.445,0,1.445C244.298,377.917,244.298,376.472,243.366,376.472
					z"/>
				<path style="fill:#FFFFFF;" d="M244.033,402.513c-1.738,0-1.738,2.695,0,2.695C245.771,405.209,245.771,402.513,244.033,402.513
					z"/>
				<path style="fill:#FFFFFF;" d="M274.033,408.53c-0.856,0-0.856,1.328,0,1.328C274.889,409.859,274.889,408.53,274.033,408.53z"
					/>
				<path style="fill:#FFFFFF;" d="M305.638,377.853c-0.248,0.177-0.497,0.354-0.746,0.532c-0.486,0.346-0.647,1.016-0.19,1.472
					c0.457,0.457,1.126,0.296,1.472-0.19c0.177-0.249,0.354-0.497,0.532-0.746C307.155,378.294,306.267,377.405,305.638,377.853z"/>
				<path style="fill:#FFFFFF;" d="M337.552,382.77c-0.009-0.02-0.017-0.039-0.026-0.059c-0.276-0.627-1.377-0.627-1.653,0
					c-0.009,0.021-0.019,0.042-0.028,0.063c-0.231,0.172-0.414,0.393-0.502,0.712c-0.203,0.739,0.243,1.527,0.982,1.73
					c0.739,0.203,1.527-0.244,1.73-0.982C338.218,383.642,337.985,383.109,337.552,382.77z"/>
				<path style="fill:#FFFFFF;" d="M368.033,338.885c-1.259,0-1.259,1.953,0,1.953S369.292,338.885,368.033,338.885z"/>
				<path style="fill:#FFFFFF;" d="M342.033,319.434c-0.992,0-1.397,1.173-0.773,1.867c-0.065-0.096-0.059-0.062,0.02,0.101
					c0.285,0.741,1.222,0.741,1.507,0c0.079-0.163,0.085-0.196,0.02-0.101C343.43,320.607,343.025,319.434,342.033,319.434z"/>
				<path style="fill:#FFFFFF;" d="M332.699,346.687c-0.655,0-0.655,1.016,0,1.016C333.354,347.702,333.354,346.687,332.699,346.687
					z"/>
				<path style="fill:#FFFFFF;" d="M222.723,337.837c-0.546-0.546-1.395-0.25-1.632,0.431c-0.074,0.212-0.198,0.39-0.315,0.581
					c-0.357,0.583,0.352,1.292,0.935,0.935c0.191-0.117,0.369-0.241,0.581-0.315C222.973,339.233,223.269,338.383,222.723,337.837z"
					/>
				<path style="fill:#FFFFFF;" d="M200.153,331.741c-0.542-0.542-1.337-0.351-1.748,0.225c-0.354,0.497-0.709,0.994-1.064,1.491
					c-0.459,0.644,0.451,1.555,1.096,1.096l1.491-1.064C200.504,333.078,200.695,332.283,200.153,331.741z"/>
				<path style="fill:#FFFFFF;" d="M203.492,353.398c-0.334-0.596-1.251-0.596-1.585,0c-0.212,0.378-0.286,0.701-0.34,1.13
					c-0.078,0.614,0.574,1.133,1.133,1.133c0.558,0,1.211-0.519,1.133-1.133C203.777,354.099,203.703,353.776,203.492,353.398z"/>
				<path style="fill:#FFFFFF;" d="M279.366,318.179c-0.684,0-1.123,0.646-0.979,1.286c0.094,0.418,0.188,0.837,0.283,1.255
					c0.156,0.692,1.238,0.692,1.394,0c0.094-0.419,0.188-0.837,0.283-1.255C280.489,318.825,280.05,318.179,279.366,318.179z"/>
				<path style="fill:#FFFFFF;" d="M284.033,358.985c-1.99,0-1.99,3.086,0,3.086S286.023,358.985,284.033,358.985z"/>
				<path style="fill:#FFFFFF;" d="M264.699,390.826c-0.829,0-1.23,0.868-0.894,1.558c0.084,0.173,0.169,0.346,0.253,0.519
					c0.236,0.485,1.045,0.485,1.282,0c0.084-0.173,0.169-0.346,0.253-0.519C265.93,391.694,265.529,390.826,264.699,390.826z"/>
				<path style="fill:#FFFFFF;" d="M290.699,393.883c-0.831,0-0.831,1.289,0,1.289C291.531,395.172,291.531,393.883,290.699,393.883
					z"/>
				<path style="fill:#FFFFFF;" d="M322.033,370.023c-1.512,0-1.512,2.344,0,2.344S323.544,370.023,322.033,370.023z"/>
				<path style="fill:#FFFFFF;" d="M264.033,350.667c-0.68,0-0.68,1.055,0,1.055S264.713,350.667,264.033,350.667z"/>
				<path style="fill:#FFFFFF;" d="M242.033,354.533c-1.713,0-1.713,2.656,0,2.656C243.746,357.189,243.746,354.533,242.033,354.533
					z"/>
				<path style="fill:#FFFFFF;" d="M363.366,69.59c-1.209,0-1.209,1.875,0,1.875C364.575,71.465,364.575,69.59,363.366,69.59z"/>
				<path style="fill:#FFFFFF;" d="M397.815,37.07c-0.387,0.088-0.727,0.183-1.06,0.412c-0.637,0.437-0.828,1.319-0.245,1.902
					c0.583,0.583,1.465,0.391,1.902-0.245c0.229-0.333,0.324-0.672,0.412-1.06C398.965,37.456,398.438,36.929,397.815,37.07z"/>
				<path style="fill:#FFFFFF;" d="M134.699,52.14c-1.36,0-1.36,2.109,0,2.109C136.059,54.249,136.059,52.14,134.699,52.14z"/>
				<path style="fill:#FFFFFF;" d="M406.403,55.454c-0.828,0.336-1.572,1.008-1.312,2c0.085,0.325,0.357,0.597,0.682,0.682
					c0.991,0.26,1.664-0.484,2-1.312C408.077,56.074,407.153,55.15,406.403,55.454z"/>
				<path style="fill:#FFFFFF;" d="M461.77,52.503l-0.469-0.337c-0.755-0.542-1.793,0.19-1.793,1.029s1.038,1.571,1.793,1.029
					c0.156-0.112,0.313-0.225,0.469-0.337C462.282,53.518,462.282,52.871,461.77,52.503z"/>
				<path style="fill:#FFFFFF;" d="M474.033,20.552c-1.182,0-1.679,1.406-0.925,2.234c0.106,0.116,0.212,0.233,0.318,0.349
					c0.305,0.335,0.911,0.335,1.215,0c0.106-0.116,0.212-0.233,0.318-0.349C475.711,21.959,475.214,20.552,474.033,20.552z"/>
				<path style="fill:#FFFFFF;" d="M432.699,19.629c-1.159,0-1.159,1.797,0,1.797C433.858,21.426,433.858,19.629,432.699,19.629z"/>
				<path style="fill:#FFFFFF;" d="M394.033,9.512c-1.31,0-1.31,2.031,0,2.031C395.342,11.543,395.342,9.512,394.033,9.512z"/>
				<path style="fill:#FFFFFF;" d="M441.366,65.59c-1.209,0-1.209,1.875,0,1.875C442.575,67.465,442.575,65.59,441.366,65.59z"/>
				<path style="fill:#FFFFFF;" d="M362.617,31.7c-0.139-0.47-0.209-0.955-0.384-1.411c-0.482-1.255-2.316-0.381-1.642,0.692
					c0.27,0.43,0.618,0.779,0.92,1.185C361.896,32.687,362.825,32.404,362.617,31.7z"/>
				<path style="fill:#FFFFFF;" d="M486.699,21.571c-0.846,0-1.252,1.037-0.677,1.634c-0.04,0.046-0.027,0.102,0.036,0.167
					c0.187,0.634,1.093,0.634,1.281,0c0.064-0.065,0.076-0.12,0.036-0.167C487.951,22.608,487.546,21.571,486.699,21.571z"/>
				<path style="fill:#FFFFFF;" d="M494.033,130.806c-1.36,0-1.36,2.109,0,2.109C495.393,132.916,495.393,130.806,494.033,130.806z"
					/>
				<path style="fill:#FFFFFF;" d="M479.664,164.524c-0.425,0.069-0.851,0.138-1.276,0.207c-1.124,0.182-1.124,2.078,0,2.26
					c0.425,0.069,0.851,0.138,1.276,0.207c0.876,0.142,1.755-0.362,1.755-1.337C481.419,164.887,480.539,164.382,479.664,164.524z"
					/>
				<path style="fill:#FFFFFF;" d="M438.699,172.181c-2.167,0-2.167,3.359,0,3.359C440.866,175.541,440.866,172.181,438.699,172.181
					z"/>
				<path style="fill:#FFFFFF;" d="M437.431,218.463c-0.261-0.332-0.653-0.455-1.03-0.605c-0.854-0.34-1.755,0.511-1.755,1.337
					c0,0.826,0.901,1.677,1.755,1.337c0.377-0.15,0.769-0.274,1.03-0.605C437.813,219.44,437.813,218.949,437.431,218.463z"/>
				<path style="fill:#FFFFFF;" d="M478.699,199.336c-1.108,0-1.485,1.267-0.842,2.034c0.101,0.121,0.203,0.242,0.304,0.363
					c0.25,0.299,0.827,0.299,1.077,0c0.101-0.121,0.203-0.242,0.304-0.363C480.184,200.603,479.808,199.336,478.699,199.336z"/>
				<path style="fill:#FFFFFF;" d="M470.699,237.749c-1.864,0-1.864,2.891,0,2.891S472.563,237.749,470.699,237.749z"/>
				<path style="fill:#FFFFFF;" d="M493.321,243.906c-0.121-0.101-0.242-0.203-0.363-0.304c-0.843-0.706-2.234-0.292-2.234,0.925
					c0,1.217,1.391,1.631,2.234,0.925c0.121-0.101,0.242-0.202,0.363-0.304C493.666,244.861,493.666,244.195,493.321,243.906z"/>
				<path style="fill:#FFFFFF;" d="M346.699,410.513c-1.738,0-1.738,2.695,0,2.695C348.437,413.209,348.437,410.513,346.699,410.513
					z"/>
				<path style="fill:#FFFFFF;" d="M328.699,435.568c-0.444,0.013-0.889,0.026-1.333,0.039c-0.327,0.01-0.327,0.498,0,0.508
					c0.445,0.013,0.889,0.026,1.333,0.039C329.077,436.165,329.077,435.557,328.699,435.568z"/>
				<path style="fill:#FFFFFF;" d="M298.033,438.572c-1.663,0-1.663,2.578,0,2.578S299.695,438.572,298.033,438.572z"/>
				<path style="fill:#FFFFFF;" d="M280.699,469.141c-1.788,0-1.788,2.773,0,2.773C282.488,471.914,282.488,469.141,280.699,469.141
					z"/>
				<path style="fill:#FFFFFF;" d="M343.366,475.339c-2.393,0-2.393,3.711,0,3.711C345.759,479.05,345.759,475.339,343.366,475.339z
					"/>
				<path style="fill:#FFFFFF;" d="M368.033,428.812c-3.073,0-3.073,4.766,0,4.766S371.106,428.812,368.033,428.812z"/>
				<path style="fill:#FFFFFF;" d="M201.366,449.219c-1.688,0-1.688,2.617,0,2.617C203.054,451.836,203.054,449.219,201.366,449.219
					z"/>
				<path style="fill:#FFFFFF;" d="M145.366,399.571c-1.234,0-1.234,1.914,0,1.914C146.6,401.485,146.6,399.571,145.366,399.571z"/>
				<path style="fill:#FFFFFF;" d="M162.687,385.183c-0.434-0.419-1.163-0.339-1.472,0.19c-0.24,0.409-0.114,0.904,0.222,1.187
					c-0.024,0.83,0.954,1.073,1.414,0.423C163.236,386.437,163.164,385.644,162.687,385.183z"/>
				<path style="fill:#FFFFFF;" d="M404.384,355.322c-0.187,0.128-0.368,0.288-0.585,0.359c-0.62,0.202-0.872,0.984-0.388,1.469
					c0.484,0.484,1.266,0.232,1.469-0.388c0.071-0.217,0.231-0.398,0.359-0.585C405.59,355.666,404.894,354.971,404.384,355.322z"/>
				<path style="fill:#FFFFFF;" d="M426.025,275.679c-0.011-0.035-0.022-0.07-0.032-0.105c-0.028-0.425-0.265-0.738-0.575-1.099
					c-0.858-0.995-2.432,0.578-1.436,1.436c0.36,0.311,0.673,0.547,1.099,0.576c0.035,0.011,0.07,0.022,0.105,0.032
					C425.676,276.672,426.176,276.171,426.025,275.679z"/>
				<path style="fill:#FFFFFF;" d="M486.451,291.378c-0.299-0.764-0.879-1.334-1.751-1.334s-1.452,0.569-1.751,1.334
					c-0.314,0.802-0.017,1.649,0.591,2.189c0.49,1.097,1.831,1.097,2.321,0C486.467,293.027,486.765,292.181,486.451,291.378z"/>
				<path style="fill:#FFFFFF;" d="M472.751,321.81c-0.098-0.124-0.196-0.249-0.294-0.373c-0.329-0.418-1.019-0.529-1.501-0.397
					c-0.662,0.182-1.133,0.802-1.133,1.488c0,0.544,0.295,1.057,0.764,1.332c0.545,0.319,1.448,0.295,1.87-0.241
					c0.098-0.124,0.196-0.249,0.294-0.373C473.126,322.77,473.126,322.286,472.751,321.81z"/>
				<path style="fill:#FFFFFF;" d="M472.133,343.962c-0.206,0.211-0.412,0.421-0.618,0.632c-0.285,0.292-0.395,0.606-0.481,0.992
					c-0.209,0.939,1.012,1.846,1.73,1.007c0.256-0.299,0.467-0.552,0.564-0.944c0.073-0.293,0.096-0.61,0.142-0.909
					C473.588,344,472.742,343.338,472.133,343.962z"/>
				<path style="fill:#FFFFFF;" d="M486.699,333.727c-1.033,0-1.033,1.602,0,1.602C487.732,335.328,487.732,333.727,486.699,333.727
					z"/>
				<path style="fill:#FFFFFF;" d="M494.033,313.73c-1.206,0-2.036,1.644-1.036,2.501c0.12,0.103,0.239,0.205,0.359,0.308
					c0.42,0.36,0.934,0.36,1.354,0c0.12-0.103,0.239-0.205,0.359-0.308C496.069,315.373,495.238,313.73,494.033,313.73z"/>
				<path style="fill:#FFFFFF;" d="M487.636,272.882l-1.219-0.414c-0.899-0.306-1.83,0.496-1.83,1.394
					c0,0.898,0.93,1.699,1.83,1.394l1.219-0.414C488.603,274.512,488.603,273.21,487.636,272.882z"/>
				<path style="fill:#FFFFFF;" d="M493.366,447.847c-1.738,0-1.738,2.695,0,2.695C495.104,450.542,495.104,447.847,493.366,447.847
					z"/>
				<path style="fill:#FFFFFF;" d="M472.112,464.138c-0.173-0.628-0.761-1.075-1.412-1.075c-0.517,0-1.004,0.28-1.265,0.726
					c-0.36,0.614-0.19,1.256,0.229,1.775c0.05,0.062,0.099,0.123,0.149,0.184c0.399,0.494,1.375,0.494,1.774,0
					c0.05-0.061,0.099-0.123,0.149-0.184C472.073,465.145,472.262,464.684,472.112,464.138z"/>
				<path style="fill:#FFFFFF;" d="M469.704,484.824c-0.346,0.169-0.692,0.337-1.038,0.506c-0.906,0.442-0.906,1.953,0,2.395
					c0.346,0.168,0.692,0.337,1.038,0.506c1.315,0.641,2.968-0.123,2.968-1.703S471.018,484.184,469.704,484.824z"/>
				<path style="fill:#FFFFFF;" d="M437.171,488.367c-0.38,0.035-0.759,0.07-1.139,0.105c-0.93,0.086-0.93,1.36,0,1.445
					c0.4,0.037,0.799,0.073,1.198,0.11c0.585,0.538,1.683,0.382,1.932-0.521C439.505,488.26,437.871,487.625,437.171,488.367z"/>
				<path style="fill:#FFFFFF;" d="M414.396,475.876c-0.267-0.059-0.534-0.118-0.802-0.177c-0.656-0.145-1.202,0.401-1.057,1.057
					c0.059,0.267,0.118,0.534,0.177,0.802c0.225,1.02,1.586,1.302,2.285,0.603C415.698,477.462,415.416,476.101,414.396,475.876z"/>
				<path style="fill:#FFFFFF;" d="M418.699,443.141c-1.788,0-1.788,2.773,0,2.773C420.488,445.914,420.488,443.141,418.699,443.141
					z"/>
				<path style="fill:#FFFFFF;" d="M445.366,436.689c-1.511,0-1.511,2.344,0,2.344C446.877,439.033,446.877,436.689,445.366,436.689
					z"/>
				<path style="fill:#FFFFFF;" d="M457.366,406.257c-1.209,0-1.209,1.875,0,1.875C458.575,408.132,458.575,406.257,457.366,406.257
					z"/>
				<path style="fill:#FFFFFF;" d="M481.861,416.428c-0.166,0.095-0.333,0.191-0.499,0.287c-0.862,0.495-0.862,1.799,0,2.294
					c0.167,0.095,0.333,0.191,0.499,0.287c1.09,0.626,2.498-0.168,2.498-1.433C484.36,416.596,482.951,415.802,481.861,416.428z"/>
				<path style="fill:#FFFFFF;" d="M437.908,374.934c-0.163-0.101-0.326-0.202-0.489-0.303c-0.927-0.575-2.145,0.172-2.145,1.231
					c0,1.059,1.219,1.806,2.145,1.231c0.163-0.101,0.326-0.202,0.489-0.303C438.602,376.358,438.602,375.364,437.908,374.934z"/>
				<path style="fill:#FFFFFF;" d="M417.366,113.827c-1.015,0-1.732,1.169-1.18,2.057c0.101,0.163,0.202,0.326,0.303,0.489
					c0.407,0.656,1.347,0.656,1.754,0l0.304-0.489C419.098,114.996,418.382,113.827,417.366,113.827z"/>
				<path style="fill:#FFFFFF;" d="M388.033,125.651c-1.99,0-1.99,3.086,0,3.086S390.023,125.651,388.033,125.651z"/>
				<path style="fill:#FFFFFF;" d="M367.12,169.002c-0.716-0.197-1.434,0.143-1.788,0.752c-0.441,0.374-0.431,1.205,0.025,1.563
					c0.203,0.347,0.496,0.619,0.922,0.736c0.831,0.229,1.717-0.274,1.946-1.105C368.453,170.117,367.951,169.231,367.12,169.002z"/>
				<path style="fill:#FFFFFF;" d="M166.246,189.752c-0.246,0.129-0.607,0.115-0.88,0.151c-0.803,0.106-0.803,1.145,0,1.25
					c0.273,0.036,0.634,0.021,0.88,0.151c0.595,0.313,1.352-0.072,1.352-0.776C167.598,189.824,166.841,189.439,166.246,189.752z"/>
				<path style="fill:#FFFFFF;" d="M143.983,159.861v0.667c0,0.064,0.1,0.064,0.1,0v-0.667
					C144.083,159.797,143.983,159.797,143.983,159.861z"/>
				<path style="fill:#FFFFFF;" d="M84.36,294.867c-0.806-0.806-2.524-0.273-2.401,0.994c0,0,0,0.001,0,0.001
					c-0.035,0.057-0.069,0.115-0.104,0.173c-0.504,0.839,0.497,1.84,1.336,1.336c0.058-0.035,0.115-0.069,0.173-0.104
					c0,0,0.001,0,0.001,0C84.633,297.391,85.166,295.672,84.36,294.867z"/>
				<path style="fill:#FFFFFF;" d="M34.149,320.128c-0.078-0.561-0.19-1.01-0.438-1.525c-0.369-0.766-1.655-0.766-2.024,0
					c-0.248,0.516-0.36,0.964-0.438,1.525c-0.133,0.949,0.377,1.904,1.45,1.904C33.772,322.032,34.282,321.077,34.149,320.128z"/>
				<path style="fill:#FFFFFF;" d="M120.033,385.145c-0.065,0-0.065,0.1,0,0.1C120.097,385.245,120.097,385.145,120.033,385.145z"/>
				<path style="fill:#FFFFFF;" d="M112.033,411.47c-0.504,0-0.504,0.781,0,0.781C112.536,412.252,112.536,411.47,112.033,411.47z"
					/>
				<path style="fill:#FFFFFF;" d="M244.854,431.451c-0.182-0.662-0.802-1.133-1.488-1.133c-0.544,0-1.057,0.295-1.332,0.764
					c-0.374,0.639-0.209,1.332,0.241,1.87c0.101,0.121,0.202,0.242,0.304,0.363c0.366,0.437,1.208,0.437,1.574,0
					c0.101-0.121,0.202-0.242,0.304-0.363C244.819,432.52,245.01,432.019,244.854,431.451z"/>
				<path style="fill:#FFFFFF;" d="M461.881,285.709c-18.732,18.601-37.388,37.278-56.028,55.973
					c-0.231,0.232,0.127,0.59,0.359,0.359c18.694-18.639,37.371-37.295,55.972-56.028
					C462.38,285.816,462.078,285.514,461.881,285.709z"/>
				<path style="fill:#FFFFFF;" d="M510.881,59.709c-18.732,18.601-37.388,37.278-56.028,55.973
					c-0.231,0.232,0.127,0.59,0.359,0.359c18.694-18.639,37.371-37.295,55.972-56.028C511.38,59.816,511.078,59.514,510.881,59.709z
					"/>
				<path style="fill:#FFFFFF;" d="M175.881,31.709c-18.732,18.601-37.388,37.278-56.028,55.973
					c-0.231,0.232,0.127,0.59,0.359,0.359c18.694-18.639,37.371-37.295,55.972-56.028C176.38,31.816,176.077,31.514,175.881,31.709z
					"/>
				<path style="fill:#FFFFFF;" d="M37.881,160.709c-18.733,18.601-37.389,37.278-56.028,55.972
					c-0.231,0.232,0.127,0.59,0.359,0.359c18.694-18.639,37.371-37.295,55.972-56.028C38.38,160.816,38.077,160.514,37.881,160.709z
					"/>
				<path style="fill:#FFFFFF;" d="M88.881,431.709c-18.732,18.601-37.389,37.278-56.028,55.973
					c-0.231,0.232,0.127,0.59,0.359,0.359c18.694-18.639,37.371-37.295,55.972-56.028C89.38,431.816,89.077,431.514,88.881,431.709z
					"/>
				<path style="fill:#FFFFFF;" d="M431.938,341.519c-8.067,7.451-16.101,14.933-24.127,22.422c-0.1,0.093,0.055,0.236,0.155,0.144
					c8.05-7.467,16.093-14.94,24.104-22.444C432.153,341.562,432.023,341.441,431.938,341.519z"/>
				<path style="fill:#FFFFFF;" d="M506.938,97.519c-8.067,7.451-16.101,14.933-24.127,22.422c-0.1,0.093,0.055,0.236,0.155,0.144
					c8.05-7.467,16.093-14.94,24.104-22.444C507.153,97.562,507.023,97.441,506.938,97.519z"/>
				<path style="fill:#FFFFFF;" d="M513.938,469.519c-8.067,7.451-16.101,14.933-24.127,22.422c-0.1,0.093,0.055,0.236,0.155,0.144
					c8.05-7.467,16.093-14.94,24.103-22.444C514.153,469.562,514.023,469.441,513.938,469.519z"/>
				<path style="fill:#FFFFFF;" d="M152.938,411.519c-8.067,7.451-16.101,14.933-24.127,22.422c-0.1,0.093,0.055,0.236,0.155,0.144
					c8.05-7.467,16.093-14.94,24.104-22.444C153.153,411.562,153.022,411.441,152.938,411.519z"/>
				<path style="fill:#FFFFFF;" d="M165.938,13.519c-8.067,7.451-16.101,14.933-24.127,22.422c-0.1,0.093,0.055,0.236,0.155,0.144
					c8.05-7.467,16.093-14.94,24.104-22.444C166.153,13.562,166.022,13.441,165.938,13.519z"/>
				<path style="fill:#FFFFFF;" d="M10.438,223.019c-8.067,7.452-16.101,14.933-24.127,22.422c-0.1,0.093,0.055,0.237,0.155,0.144
					c8.05-7.467,16.093-14.94,24.104-22.444C10.653,223.062,10.523,222.941,10.438,223.019z"/>
				<path style="fill:#FFFFFF;" d="M293.271,11.519c-8.067,7.451-16.101,14.933-24.127,22.422c-0.1,0.093,0.055,0.236,0.155,0.144
					c8.05-7.467,16.093-14.94,24.103-22.444C293.486,11.562,293.356,11.441,293.271,11.519z"/>
			</g>
		</g>
	</g>
</g>
<g id="BACKGROUND_2">
</g>
<g id="DESIGNED_BY_FREEPIK">
	<g>
		<g>
			<path style="fill:#FFFFFF;" d="M178.014,489.746v-0.169c-0.228,0.26-0.453,0.474-0.675,0.636
				c-0.221,0.165-0.462,0.289-0.72,0.374c-0.259,0.085-0.541,0.128-0.848,0.128c-0.406,0-0.782-0.087-1.128-0.259
				c-0.345-0.171-0.645-0.417-0.897-0.736c-0.253-0.32-0.445-0.693-0.575-1.124c-0.131-0.431-0.196-0.897-0.196-1.398
				c0-1.061,0.259-1.888,0.777-2.48c0.518-0.592,1.199-0.888,2.045-0.888c0.488,0,0.901,0.084,1.235,0.25
				c0.336,0.169,0.663,0.426,0.983,0.774v-2.505c0-0.347,0.068-0.61,0.209-0.789c0.138-0.178,0.336-0.266,0.592-0.266
				c0.258,0,0.455,0.082,0.594,0.245c0.138,0.164,0.208,0.403,0.208,0.723v7.483c0,0.322-0.074,0.565-0.223,0.726
				c-0.149,0.161-0.342,0.243-0.579,0.243c-0.231,0-0.422-0.084-0.575-0.253C178.09,490.294,178.014,490.054,178.014,489.746z
				 M174.677,487.253c0,0.46,0.072,0.851,0.214,1.174c0.143,0.324,0.339,0.568,0.588,0.729c0.249,0.166,0.52,0.247,0.814,0.247
				c0.298,0,0.57-0.077,0.817-0.233c0.246-0.155,0.443-0.393,0.59-0.714c0.148-0.321,0.222-0.723,0.222-1.202
				c0-0.452-0.074-0.84-0.222-1.166c-0.147-0.325-0.344-0.573-0.596-0.746c-0.251-0.172-0.525-0.258-0.823-0.258
				c-0.311,0-0.588,0.089-0.833,0.265c-0.245,0.174-0.434,0.427-0.568,0.757C174.744,486.436,174.677,486.818,174.677,487.253z"/>
			<path style="fill:#FFFFFF;" d="M185.495,487.683h-3.318c0.004,0.385,0.081,0.724,0.233,1.018c0.15,0.296,0.352,0.516,0.602,0.665
				c0.251,0.15,0.527,0.222,0.83,0.222c0.203,0,0.388-0.022,0.557-0.07c0.167-0.049,0.33-0.122,0.488-0.223
				c0.156-0.101,0.302-0.211,0.433-0.327c0.133-0.117,0.305-0.273,0.516-0.474c0.087-0.074,0.211-0.111,0.374-0.111
				c0.173,0,0.314,0.049,0.421,0.143c0.107,0.096,0.162,0.231,0.162,0.404c0,0.154-0.06,0.332-0.18,0.538
				c-0.122,0.204-0.303,0.402-0.544,0.591c-0.243,0.187-0.547,0.343-0.914,0.469c-0.366,0.123-0.787,0.187-1.263,0.187
				c-1.09,0-1.937-0.313-2.542-0.934c-0.605-0.62-0.907-1.464-0.907-2.528c0-0.502,0.073-0.967,0.223-1.395s0.367-0.796,0.652-1.104
				c0.286-0.305,0.638-0.541,1.057-0.704c0.418-0.164,0.883-0.244,1.392-0.244c0.663,0,1.232,0.138,1.705,0.419
				c0.475,0.278,0.83,0.64,1.066,1.083c0.236,0.444,0.354,0.896,0.354,1.355c0,0.427-0.122,0.703-0.365,0.831
				C186.283,487.619,185.938,487.683,185.495,487.683z M182.177,486.719h3.076c-0.042-0.581-0.199-1.016-0.47-1.302
				c-0.271-0.288-0.628-0.432-1.072-0.432c-0.422,0-0.77,0.145-1.041,0.438C182.399,485.714,182.236,486.147,182.177,486.719z"/>
			<path style="fill:#FFFFFF;" d="M193.225,488.494c0,0.47-0.114,0.87-0.342,1.204c-0.227,0.333-0.564,0.587-1.01,0.758
				c-0.445,0.172-0.987,0.259-1.625,0.259c-0.609,0-1.132-0.094-1.566-0.281c-0.436-0.187-0.756-0.42-0.963-0.698
				c-0.206-0.281-0.31-0.56-0.31-0.842c0-0.187,0.065-0.347,0.199-0.478c0.132-0.132,0.3-0.199,0.503-0.199
				c0.178,0,0.314,0.044,0.41,0.131c0.095,0.088,0.186,0.21,0.273,0.366c0.173,0.303,0.382,0.529,0.624,0.677
				c0.243,0.149,0.573,0.223,0.993,0.223c0.339,0,0.618-0.076,0.835-0.226c0.217-0.153,0.326-0.325,0.326-0.52
				c0-0.298-0.112-0.515-0.338-0.652c-0.226-0.137-0.598-0.267-1.116-0.392c-0.583-0.145-1.06-0.297-1.426-0.457
				c-0.367-0.159-0.66-0.37-0.879-0.63c-0.22-0.262-0.331-0.583-0.331-0.963c0-0.341,0.101-0.662,0.305-0.964
				c0.203-0.302,0.503-0.543,0.898-0.723c0.395-0.182,0.873-0.272,1.432-0.272c0.439,0,0.834,0.046,1.183,0.138
				c0.35,0.09,0.643,0.214,0.876,0.367c0.234,0.152,0.413,0.322,0.535,0.509c0.122,0.185,0.183,0.369,0.183,0.547
				c0,0.194-0.066,0.354-0.195,0.479c-0.131,0.123-0.315,0.186-0.557,0.186c-0.173,0-0.322-0.049-0.443-0.149
				c-0.122-0.099-0.262-0.248-0.421-0.447c-0.127-0.166-0.278-0.299-0.453-0.398c-0.173-0.1-0.41-0.149-0.708-0.149
				c-0.306,0-0.56,0.065-0.764,0.197c-0.203,0.128-0.305,0.292-0.305,0.487c0,0.178,0.076,0.325,0.223,0.438
				c0.15,0.114,0.35,0.209,0.604,0.282c0.251,0.074,0.599,0.165,1.044,0.273c0.526,0.129,0.954,0.282,1.289,0.46
				c0.333,0.177,0.586,0.388,0.758,0.631C193.139,487.908,193.225,488.184,193.225,488.494z"/>
			<path style="fill:#FFFFFF;" d="M194.958,483.028c-0.236,0-0.438-0.073-0.605-0.217c-0.168-0.145-0.253-0.35-0.253-0.616
				c0-0.241,0.087-0.437,0.258-0.593c0.173-0.156,0.372-0.233,0.6-0.233c0.22,0,0.414,0.071,0.583,0.211
				c0.17,0.142,0.255,0.347,0.255,0.615c0,0.261-0.083,0.466-0.249,0.613C195.383,482.954,195.186,483.028,194.958,483.028z
				 M195.796,484.78v4.902c0,0.339-0.081,0.598-0.242,0.772c-0.162,0.173-0.366,0.261-0.615,0.261c-0.25,0-0.452-0.089-0.607-0.267
				c-0.155-0.179-0.233-0.433-0.233-0.765v-4.852c0-0.336,0.078-0.588,0.233-0.759c0.155-0.168,0.357-0.255,0.607-0.255
				c0.249,0,0.453,0.087,0.615,0.255C195.716,484.241,195.796,484.477,195.796,484.78z"/>
			<path style="fill:#FFFFFF;" d="M203.228,485.059v4.928c0,0.564-0.061,1.047-0.182,1.454c-0.118,0.406-0.311,0.741-0.577,1.007
				c-0.264,0.265-0.611,0.461-1.04,0.59c-0.429,0.128-0.962,0.193-1.6,0.193c-0.583,0-1.106-0.082-1.566-0.245
				c-0.459-0.163-0.813-0.376-1.062-0.635c-0.249-0.259-0.374-0.525-0.374-0.798c0-0.206,0.071-0.376,0.211-0.505
				c0.14-0.131,0.311-0.195,0.51-0.195c0.248,0,0.466,0.11,0.653,0.328c0.09,0.112,0.184,0.226,0.282,0.339
				c0.098,0.114,0.205,0.211,0.323,0.292c0.117,0.079,0.26,0.14,0.425,0.181c0.166,0.038,0.358,0.057,0.573,0.057
				c0.439,0,0.78-0.06,1.022-0.182c0.243-0.123,0.413-0.294,0.51-0.514c0.096-0.217,0.154-0.454,0.171-0.704
				c0.017-0.251,0.028-0.654,0.037-1.21c-0.261,0.366-0.562,0.643-0.905,0.834c-0.34,0.19-0.748,0.286-1.219,0.286
				c-0.569,0-1.064-0.144-1.489-0.435c-0.425-0.29-0.752-0.697-0.979-1.218c-0.227-0.522-0.341-1.124-0.341-1.808
				c0-0.51,0.068-0.97,0.207-1.379c0.139-0.411,0.337-0.757,0.593-1.038c0.256-0.283,0.553-0.495,0.889-0.639
				c0.336-0.142,0.703-0.212,1.106-0.212c0.481,0,0.897,0.092,1.249,0.275c0.353,0.186,0.68,0.475,0.983,0.868v-0.231
				c0-0.293,0.071-0.521,0.217-0.684c0.145-0.161,0.331-0.243,0.559-0.243c0.327,0,0.544,0.109,0.652,0.321
				C203.173,484.35,203.228,484.658,203.228,485.059z M198.312,487.21c0,0.686,0.15,1.207,0.451,1.559
				c0.3,0.353,0.69,0.529,1.166,0.529c0.281,0,0.547-0.076,0.797-0.227c0.251-0.151,0.455-0.38,0.613-0.684
				c0.158-0.304,0.237-0.674,0.237-1.108c0-0.692-0.153-1.23-0.457-1.615c-0.305-0.387-0.706-0.58-1.204-0.58
				c-0.485,0-0.873,0.186-1.164,0.554C198.458,486.005,198.312,486.53,198.312,487.21z"/>
			<path style="fill:#FFFFFF;" d="M205.925,484.754v0.206c0.298-0.393,0.624-0.682,0.978-0.867c0.355-0.186,0.762-0.278,1.221-0.278
				c0.448,0,0.847,0.099,1.2,0.294c0.352,0.194,0.615,0.47,0.789,0.825c0.112,0.206,0.184,0.432,0.217,0.67
				c0.033,0.242,0.051,0.548,0.051,0.92v3.157c0,0.339-0.078,0.598-0.234,0.772c-0.155,0.173-0.356,0.261-0.605,0.261
				c-0.253,0-0.458-0.089-0.615-0.267c-0.157-0.179-0.236-0.433-0.236-0.765v-2.827c0-0.559-0.078-0.987-0.234-1.283
				c-0.155-0.297-0.464-0.444-0.928-0.444c-0.303,0-0.579,0.089-0.827,0.27c-0.249,0.182-0.432,0.428-0.547,0.743
				c-0.083,0.253-0.124,0.725-0.124,1.416v2.125c0,0.344-0.081,0.603-0.239,0.774c-0.16,0.172-0.366,0.259-0.618,0.259
				c-0.245,0-0.446-0.089-0.603-0.267c-0.157-0.179-0.237-0.433-0.237-0.765v-4.902c0-0.323,0.071-0.564,0.211-0.724
				c0.14-0.16,0.333-0.241,0.577-0.241c0.15,0,0.284,0.037,0.405,0.107c0.12,0.071,0.216,0.176,0.289,0.316
				C205.888,484.381,205.925,484.551,205.925,484.754z"/>
			<path style="fill:#FFFFFF;" d="M216.244,487.683h-3.318c0.004,0.385,0.082,0.724,0.233,1.018
				c0.151,0.296,0.352,0.516,0.603,0.665c0.249,0.15,0.526,0.222,0.829,0.222c0.203,0,0.388-0.022,0.557-0.07
				c0.167-0.049,0.33-0.122,0.487-0.223c0.158-0.101,0.301-0.211,0.436-0.327c0.132-0.117,0.304-0.273,0.515-0.474
				c0.087-0.074,0.211-0.111,0.374-0.111c0.173,0,0.314,0.049,0.422,0.143c0.107,0.096,0.161,0.231,0.161,0.404
				c0,0.154-0.06,0.332-0.179,0.538c-0.121,0.204-0.303,0.402-0.544,0.591c-0.243,0.187-0.547,0.343-0.913,0.469
				c-0.367,0.123-0.788,0.187-1.265,0.187c-1.09,0-1.937-0.313-2.543-0.934c-0.603-0.62-0.906-1.464-0.906-2.528
				c0-0.502,0.073-0.967,0.223-1.395c0.149-0.428,0.366-0.796,0.653-1.104c0.284-0.305,0.637-0.541,1.055-0.704
				c0.419-0.164,0.884-0.244,1.393-0.244c0.663,0,1.23,0.138,1.705,0.419c0.475,0.278,0.83,0.64,1.066,1.083
				c0.236,0.444,0.355,0.896,0.355,1.355c0,0.427-0.123,0.703-0.367,0.831C217.033,487.619,216.688,487.683,216.244,487.683z
				 M212.927,486.719h3.076c-0.042-0.581-0.198-1.016-0.469-1.302c-0.272-0.288-0.629-0.432-1.073-0.432
				c-0.422,0-0.77,0.145-1.041,0.438C213.149,485.714,212.984,486.147,212.927,486.719z"/>
			<path style="fill:#FFFFFF;" d="M223.16,489.746v-0.169c-0.227,0.26-0.453,0.474-0.675,0.636c-0.221,0.165-0.461,0.289-0.72,0.374
				c-0.259,0.085-0.541,0.128-0.847,0.128c-0.406,0-0.782-0.087-1.129-0.259c-0.346-0.171-0.645-0.417-0.897-0.736
				c-0.253-0.32-0.444-0.693-0.575-1.124c-0.131-0.431-0.195-0.897-0.195-1.398c0-1.061,0.259-1.888,0.776-2.48
				c0.518-0.592,1.2-0.888,2.045-0.888c0.49,0,0.901,0.084,1.236,0.25c0.336,0.169,0.663,0.426,0.982,0.774v-2.505
				c0-0.347,0.07-0.61,0.208-0.789c0.139-0.178,0.338-0.266,0.594-0.266c0.256,0,0.454,0.082,0.593,0.245
				c0.138,0.164,0.209,0.403,0.209,0.723v7.483c0,0.322-0.075,0.565-0.225,0.726c-0.149,0.161-0.34,0.243-0.577,0.243
				c-0.232,0-0.424-0.084-0.575-0.253C223.236,490.294,223.16,490.054,223.16,489.746z M219.824,487.253
				c0,0.46,0.071,0.851,0.214,1.174c0.143,0.324,0.338,0.568,0.587,0.729c0.249,0.166,0.52,0.247,0.814,0.247
				c0.299,0,0.571-0.077,0.817-0.233c0.247-0.155,0.444-0.393,0.591-0.714c0.148-0.321,0.22-0.723,0.22-1.202
				c0-0.452-0.072-0.84-0.22-1.166c-0.146-0.325-0.345-0.573-0.596-0.746c-0.253-0.172-0.526-0.258-0.825-0.258
				c-0.31,0-0.587,0.089-0.831,0.265c-0.244,0.174-0.435,0.427-0.569,0.757C219.89,486.436,219.824,486.818,219.824,487.253z"/>
			<path style="fill:#FFFFFF;" d="M230.093,482.263v2.592c0.319-0.331,0.643-0.586,0.975-0.76c0.332-0.177,0.742-0.264,1.23-0.264
				c0.564,0,1.057,0.132,1.483,0.399c0.424,0.269,0.752,0.656,0.988,1.162c0.234,0.508,0.352,1.11,0.352,1.807
				c0,0.514-0.066,0.984-0.197,1.412s-0.32,0.801-0.569,1.116c-0.248,0.315-0.549,0.559-0.903,0.73
				c-0.355,0.172-0.746,0.259-1.172,0.259c-0.261,0-0.507-0.032-0.736-0.094c-0.231-0.062-0.426-0.143-0.588-0.245
				c-0.161-0.101-0.299-0.205-0.413-0.314c-0.114-0.107-0.265-0.27-0.451-0.485v0.169c0,0.318-0.077,0.56-0.231,0.723
				c-0.151,0.165-0.348,0.247-0.584,0.247c-0.24,0-0.432-0.082-0.575-0.247c-0.143-0.162-0.214-0.404-0.214-0.723v-7.409
				c0-0.343,0.07-0.604,0.206-0.779c0.14-0.177,0.334-0.264,0.582-0.264c0.261,0,0.463,0.083,0.603,0.25
				C230.023,481.713,230.093,481.951,230.093,482.263z M230.174,487.303c0,0.675,0.154,1.194,0.464,1.556
				c0.308,0.363,0.713,0.543,1.215,0.543c0.426,0,0.793-0.184,1.102-0.555c0.309-0.372,0.463-0.902,0.463-1.594
				c0-0.448-0.063-0.834-0.193-1.156c-0.128-0.322-0.31-0.574-0.546-0.748c-0.237-0.176-0.513-0.265-0.826-0.265
				c-0.324,0-0.612,0.089-0.864,0.265c-0.253,0.174-0.452,0.43-0.597,0.764C230.246,486.445,230.174,486.843,230.174,487.303z"/>
			<path style="fill:#FFFFFF;" d="M237.32,490.926l0.155-0.381l-2.088-5.256c-0.128-0.301-0.194-0.521-0.194-0.658
				c0-0.146,0.039-0.28,0.113-0.404c0.074-0.125,0.176-0.223,0.306-0.298c0.132-0.076,0.267-0.113,0.408-0.113
				c0.244,0,0.428,0.079,0.553,0.234c0.126,0.155,0.234,0.377,0.329,0.668l1.436,4.176l1.36-3.884
				c0.107-0.314,0.205-0.56,0.293-0.739c0.087-0.179,0.18-0.3,0.276-0.361c0.098-0.061,0.236-0.094,0.414-0.094
				c0.129,0,0.251,0.034,0.37,0.104c0.117,0.068,0.209,0.161,0.273,0.277c0.064,0.116,0.097,0.238,0.097,0.365
				c-0.017,0.079-0.044,0.19-0.082,0.337c-0.037,0.144-0.082,0.292-0.137,0.441l-2.212,5.792c-0.191,0.509-0.376,0.908-0.559,1.199
				c-0.183,0.289-0.422,0.514-0.724,0.668c-0.301,0.156-0.706,0.233-1.215,0.233c-0.497,0-0.87-0.054-1.118-0.161
				c-0.249-0.109-0.374-0.305-0.374-0.591c0-0.194,0.06-0.345,0.178-0.45c0.117-0.105,0.293-0.16,0.524-0.16
				c0.092,0,0.181,0.013,0.267,0.039c0.109,0.024,0.201,0.038,0.28,0.038c0.194,0,0.348-0.029,0.46-0.089
				c0.112-0.057,0.212-0.156,0.301-0.302C237.101,491.413,237.204,491.202,237.32,490.926z"/>
		</g>
		<g>
			<path style="fill:#FFFFFF;" d="M261.895,483.963h0.404v-0.509c0-0.532,0.065-0.953,0.2-1.268c0.134-0.313,0.364-0.54,0.685-0.682
				c0.322-0.143,0.762-0.215,1.319-0.215c0.995,0,1.487,0.242,1.487,0.73c0,0.156-0.051,0.29-0.156,0.403
				c-0.1,0.11-0.225,0.167-0.365,0.167c-0.065,0-0.183-0.013-0.345-0.04c-0.156-0.021-0.297-0.035-0.408-0.035
				c-0.305,0-0.502,0.093-0.591,0.272c-0.085,0.18-0.128,0.437-0.128,0.775v0.403h0.414c0.648,0,0.968,0.194,0.968,0.586
				c0,0.275-0.083,0.452-0.256,0.526c-0.171,0.076-0.409,0.112-0.712,0.112h-0.414v4.495c0,0.335-0.079,0.59-0.243,0.765
				c-0.158,0.178-0.361,0.266-0.616,0.266c-0.239,0-0.439-0.088-0.601-0.266c-0.159-0.176-0.238-0.431-0.238-0.765v-4.495h-0.468
				c-0.254,0-0.447-0.055-0.585-0.171c-0.137-0.112-0.205-0.263-0.205-0.443C261.041,484.164,261.326,483.963,261.895,483.963"/>
			<path style="fill:#FFFFFF;" d="M267.448,488.265v1.417c0,0.343-0.087,0.602-0.244,0.773c-0.161,0.173-0.365,0.259-0.613,0.259
				c-0.25,0-0.45-0.087-0.607-0.262c-0.155-0.173-0.236-0.43-0.236-0.769v-4.724c0-0.763,0.275-1.145,0.824-1.145
				c0.284,0,0.487,0.089,0.611,0.267c0.125,0.178,0.193,0.441,0.208,0.791c0.2-0.35,0.408-0.613,0.62-0.791
				c0.219-0.178,0.499-0.267,0.857-0.267c0.359,0,0.702,0.089,1.038,0.267c0.337,0.178,0.504,0.416,0.504,0.71
				c0,0.205-0.072,0.378-0.212,0.51c-0.144,0.137-0.298,0.204-0.463,0.204c-0.065,0-0.216-0.042-0.454-0.118
				c-0.238-0.073-0.449-0.112-0.63-0.112c-0.248,0-0.452,0.067-0.609,0.194c-0.159,0.134-0.281,0.326-0.369,0.581
				c-0.085,0.259-0.144,0.566-0.178,0.918C267.463,487.322,267.448,487.756,267.448,488.265"/>
			<path style="fill:#FFFFFF;" d="M275.248,487.68h-3.32c0.006,0.386,0.081,0.726,0.233,1.02c0.153,0.29,0.353,0.514,0.604,0.664
				c0.251,0.15,0.525,0.222,0.829,0.222c0.205,0,0.388-0.021,0.557-0.072c0.166-0.045,0.331-0.121,0.487-0.222
				c0.159-0.101,0.302-0.209,0.436-0.327c0.132-0.116,0.305-0.273,0.516-0.471c0.087-0.074,0.212-0.113,0.371-0.113
				c0.176,0,0.316,0.049,0.425,0.144c0.11,0.096,0.159,0.231,0.159,0.404c0,0.155-0.057,0.332-0.174,0.537
				c-0.123,0.206-0.303,0.403-0.546,0.593c-0.245,0.186-0.549,0.344-0.916,0.466c-0.365,0.124-0.787,0.188-1.263,0.188
				c-1.092,0-1.94-0.31-2.543-0.931c-0.604-0.623-0.91-1.466-0.91-2.531c0-0.502,0.075-0.968,0.226-1.396
				c0.147-0.431,0.365-0.796,0.654-1.104c0.284-0.309,0.635-0.543,1.053-0.707c0.419-0.162,0.883-0.244,1.394-0.244
				c0.66,0,1.229,0.139,1.704,0.422c0.474,0.277,0.834,0.638,1.066,1.081c0.238,0.447,0.355,0.896,0.355,1.358
				c0,0.425-0.124,0.701-0.369,0.829C276.034,487.617,275.691,487.68,275.248,487.68 M271.928,486.716h3.076
				c-0.042-0.579-0.195-1.014-0.467-1.299c-0.273-0.29-0.628-0.432-1.073-0.432c-0.422,0-0.77,0.143-1.041,0.437
				C272.15,485.714,271.984,486.145,271.928,486.716"/>
			<path style="fill:#FFFFFF;" d="M282.305,487.68h-3.318c0.002,0.386,0.082,0.726,0.231,1.02c0.151,0.29,0.353,0.514,0.603,0.664
				c0.251,0.15,0.526,0.222,0.831,0.222c0.202,0,0.388-0.021,0.553-0.072c0.17-0.045,0.331-0.121,0.491-0.222
				c0.159-0.101,0.3-0.209,0.435-0.327c0.129-0.116,0.303-0.273,0.515-0.471c0.089-0.074,0.212-0.113,0.372-0.113
				c0.176,0,0.316,0.049,0.426,0.144c0.107,0.096,0.155,0.231,0.155,0.404c0,0.155-0.056,0.332-0.177,0.537
				c-0.116,0.206-0.299,0.403-0.545,0.593c-0.242,0.186-0.549,0.344-0.912,0.466c-0.364,0.124-0.79,0.188-1.266,0.188
				c-1.09,0-1.936-0.31-2.544-0.931c-0.603-0.623-0.908-1.466-0.908-2.531c0-0.502,0.077-0.968,0.228-1.396
				c0.148-0.431,0.366-0.796,0.652-1.104c0.284-0.309,0.636-0.543,1.056-0.707c0.416-0.162,0.883-0.244,1.393-0.244
				c0.659,0,1.229,0.139,1.71,0.422c0.47,0.277,0.828,0.638,1.06,1.081c0.236,0.447,0.357,0.896,0.357,1.358
				c0,0.425-0.125,0.701-0.367,0.829C283.09,487.617,282.747,487.68,282.305,487.68 M278.987,486.716h3.074
				c-0.04-0.579-0.198-1.014-0.467-1.299c-0.275-0.29-0.629-0.432-1.074-0.432c-0.422,0-0.77,0.143-1.041,0.437
				C279.208,485.714,279.042,486.145,278.987,486.716"/>
			<path style="fill:#FFFFFF;" d="M286.021,484.767v0.203c0.319-0.392,0.651-0.681,0.997-0.867c0.339-0.184,0.731-0.278,1.166-0.278
				c0.52,0,1.005,0.135,1.444,0.404c0.441,0.271,0.784,0.665,1.039,1.182c0.256,0.52,0.384,1.132,0.384,1.841
				c0,0.521-0.073,1.002-0.221,1.439c-0.145,0.438-0.35,0.803-0.607,1.1c-0.256,0.295-0.559,0.525-0.908,0.685
				c-0.355,0.158-0.729,0.238-1.132,0.238c-0.482,0-0.891-0.098-1.22-0.293c-0.328-0.192-0.643-0.481-0.944-0.854v2.546
				c0,0.743-0.272,1.119-0.813,1.119c-0.321,0-0.53-0.096-0.636-0.288c-0.099-0.195-0.154-0.474-0.154-0.845v-7.323
				c0-0.325,0.07-0.563,0.21-0.724c0.14-0.157,0.336-0.239,0.58-0.239c0.241,0,0.435,0.082,0.586,0.245
				C285.947,484.224,286.021,484.456,286.021,484.767 M289.347,487.232c0-0.447-0.07-0.832-0.205-1.152
				c-0.137-0.322-0.327-0.569-0.568-0.738c-0.241-0.172-0.512-0.26-0.807-0.26c-0.466,0-0.862,0.187-1.183,0.553
				c-0.322,0.371-0.484,0.913-0.484,1.631c0,0.671,0.16,1.199,0.481,1.575c0.319,0.375,0.71,0.56,1.185,0.56
				c0.281,0,0.544-0.082,0.785-0.242c0.243-0.167,0.435-0.411,0.577-0.738C289.274,488.093,289.347,487.696,289.347,487.232"/>
			<path style="fill:#FFFFFF;" d="M292.759,483.023c-0.237,0-0.437-0.074-0.603-0.219c-0.17-0.145-0.253-0.349-0.253-0.614
				c0-0.239,0.084-0.438,0.258-0.595c0.172-0.154,0.371-0.233,0.598-0.233c0.222,0,0.416,0.071,0.585,0.21
				c0.171,0.143,0.256,0.349,0.256,0.618c0,0.262-0.083,0.466-0.246,0.613C293.186,482.949,292.99,483.023,292.759,483.023
				 M293.6,484.776v4.908c0,0.337-0.081,0.593-0.242,0.767c-0.164,0.176-0.369,0.262-0.617,0.262c-0.25,0-0.448-0.088-0.608-0.266
				c-0.153-0.182-0.231-0.436-0.231-0.763v-4.86c0-0.333,0.078-0.585,0.231-0.756c0.16-0.173,0.358-0.256,0.608-0.256
				c0.248,0,0.453,0.083,0.617,0.256C293.519,484.24,293.6,484.476,293.6,484.776"/>
			<path style="fill:#FFFFFF;" d="M299.069,489.938l-1.494-2.465l-0.922,0.87v1.35c0,0.327-0.087,0.577-0.26,0.753
				c-0.167,0.178-0.369,0.266-0.593,0.266c-0.26,0-0.467-0.087-0.614-0.262c-0.149-0.173-0.225-0.43-0.225-0.769v-7.238
				c0-0.375,0.073-0.66,0.215-0.859c0.148-0.199,0.356-0.297,0.624-0.297c0.262,0,0.466,0.09,0.623,0.27
				c0.153,0.177,0.231,0.441,0.231,0.786v4.118l1.907-2.005c0.238-0.244,0.414-0.417,0.542-0.508
				c0.124-0.09,0.275-0.137,0.452-0.137c0.214,0,0.388,0.067,0.532,0.203c0.139,0.134,0.21,0.304,0.21,0.505
				c0,0.248-0.231,0.582-0.691,0.995l-0.9,0.826l1.741,2.737c0.126,0.205,0.221,0.356,0.276,0.461
				c0.055,0.104,0.087,0.209,0.087,0.303c0,0.27-0.076,0.48-0.225,0.638c-0.147,0.155-0.342,0.232-0.58,0.232
				c-0.206,0-0.367-0.055-0.479-0.168C299.413,490.432,299.258,490.229,299.069,489.938"/>
			<path style="fill:#FFFFFF;" d="M302.755,490.714c-0.255,0-0.475-0.083-0.664-0.25c-0.184-0.163-0.28-0.395-0.28-0.697
				c0-0.251,0.09-0.469,0.269-0.651c0.179-0.183,0.398-0.273,0.659-0.273c0.26,0,0.481,0.09,0.669,0.27
				c0.182,0.181,0.276,0.4,0.276,0.654c0,0.297-0.094,0.53-0.276,0.693C303.22,490.631,303.003,490.714,302.755,490.714"/>
			<path style="fill:#FFFFFF;" d="M311.194,488.613c0,0.209-0.064,0.437-0.19,0.676c-0.126,0.242-0.32,0.47-0.579,0.687
				c-0.259,0.216-0.583,0.394-0.978,0.526c-0.394,0.132-0.839,0.2-1.329,0.2c-1.051,0-1.87-0.308-2.458-0.917
				c-0.585-0.613-0.88-1.433-0.88-2.461c0-0.697,0.134-1.312,0.405-1.847c0.266-0.534,0.657-0.947,1.166-1.238
				c0.509-0.294,1.123-0.439,1.827-0.439c0.441,0,0.842,0.065,1.212,0.193c0.366,0.128,0.675,0.295,0.933,0.497
				c0.253,0.206,0.448,0.421,0.581,0.648c0.135,0.231,0.201,0.447,0.201,0.647c0,0.2-0.074,0.373-0.225,0.515
				c-0.154,0.14-0.337,0.211-0.548,0.211c-0.144,0-0.26-0.037-0.354-0.107c-0.094-0.075-0.199-0.19-0.314-0.355
				c-0.207-0.314-0.422-0.55-0.651-0.706c-0.225-0.16-0.512-0.238-0.859-0.238c-0.499,0-0.907,0.195-1.213,0.589
				c-0.306,0.389-0.46,0.929-0.46,1.604c0,0.321,0.042,0.615,0.121,0.883c0.076,0.267,0.19,0.494,0.339,0.684
				c0.151,0.188,0.33,0.33,0.541,0.428c0.212,0.099,0.444,0.146,0.696,0.146c0.34,0,0.631-0.078,0.875-0.235
				c0.244-0.159,0.459-0.397,0.645-0.722c0.104-0.19,0.214-0.339,0.332-0.448c0.121-0.105,0.268-0.162,0.443-0.162
				c0.206,0,0.378,0.082,0.514,0.238C311.124,488.266,311.194,488.436,311.194,488.613"/>
			<path style="fill:#FFFFFF;" d="M318.516,487.265c0,0.502-0.081,0.97-0.233,1.398c-0.162,0.428-0.387,0.793-0.687,1.1
				c-0.298,0.306-0.656,0.542-1.067,0.706c-0.418,0.162-0.883,0.247-1.399,0.247c-0.514,0-0.978-0.084-1.388-0.252
				c-0.408-0.163-0.766-0.402-1.064-0.708c-0.3-0.311-0.529-0.676-0.687-1.097c-0.149-0.42-0.229-0.885-0.229-1.393
				c0-0.515,0.082-0.986,0.234-1.412c0.159-0.429,0.384-0.794,0.68-1.095c0.296-0.303,0.649-0.535,1.067-0.7
				c0.421-0.164,0.884-0.245,1.388-0.245c0.514,0,0.98,0.082,1.399,0.25c0.419,0.164,0.775,0.402,1.075,0.706
				c0.3,0.31,0.525,0.674,0.681,1.094C318.436,486.289,318.516,486.754,318.516,487.265 M316.813,487.265
				c0-0.693-0.154-1.232-0.457-1.616c-0.304-0.389-0.713-0.58-1.227-0.58c-0.332,0-0.625,0.085-0.879,0.258
				c-0.254,0.17-0.444,0.425-0.582,0.76c-0.137,0.337-0.206,0.729-0.206,1.178c0,0.444,0.068,0.829,0.203,1.16
				c0.135,0.335,0.33,0.587,0.58,0.763c0.253,0.175,0.547,0.264,0.885,0.264c0.514,0,0.923-0.193,1.227-0.582
				C316.659,488.482,316.813,487.946,316.813,487.265"/>
			<path style="fill:#FFFFFF;" d="M324.988,487.39v2.255c0,0.356-0.079,0.621-0.243,0.803c-0.163,0.178-0.374,0.267-0.638,0.267
				c-0.258,0-0.469-0.089-0.623-0.267c-0.162-0.182-0.244-0.447-0.244-0.803v-2.704c0-0.426-0.013-0.759-0.04-0.996
				c-0.031-0.232-0.111-0.43-0.237-0.577c-0.129-0.155-0.333-0.231-0.61-0.231c-0.557,0-0.919,0.19-1.098,0.576
				c-0.173,0.377-0.265,0.925-0.265,1.639v2.292c0,0.352-0.079,0.619-0.236,0.801c-0.164,0.178-0.372,0.27-0.632,0.27
				c-0.259,0-0.469-0.092-0.632-0.27c-0.164-0.182-0.245-0.449-0.245-0.801v-4.854c0-0.321,0.072-0.564,0.22-0.728
				c0.149-0.168,0.343-0.25,0.581-0.25c0.233,0,0.426,0.081,0.584,0.232c0.154,0.157,0.232,0.371,0.232,0.645v0.161
				c0.297-0.35,0.61-0.609,0.943-0.773c0.339-0.171,0.708-0.253,1.122-0.253c0.426,0,0.792,0.086,1.097,0.255
				c0.308,0.171,0.558,0.428,0.759,0.77c0.287-0.347,0.594-0.604,0.922-0.773c0.328-0.168,0.691-0.253,1.088-0.253
				c0.463,0,0.866,0.094,1.2,0.275c0.335,0.182,0.585,0.444,0.751,0.781c0.144,0.309,0.216,0.792,0.216,1.451v3.312
				c0,0.356-0.079,0.621-0.24,0.803c-0.161,0.178-0.376,0.267-0.64,0.267c-0.259,0-0.467-0.092-0.632-0.27
				c-0.164-0.182-0.245-0.449-0.245-0.801v-2.854c0-0.366-0.015-0.656-0.046-0.875c-0.03-0.221-0.115-0.405-0.249-0.553
				c-0.139-0.15-0.348-0.226-0.624-0.226c-0.223,0-0.435,0.07-0.637,0.201c-0.2,0.129-0.358,0.311-0.471,0.531
				C325.051,486.157,324.988,486.662,324.988,487.39"/>
		</g>
		<g>
			<path style="fill:#FFFFFF;" d="M246.019,486.854c-0.001-0.004-0.001-0.006-0.001-0.012
				C246.018,486.848,246.018,486.85,246.019,486.854z"/>
			<path style="fill:#FFFFFF;" d="M246.104,487.396c0.001,0,0.001,0,0.001,0c-0.032-0.155-0.057-0.308-0.077-0.459
				C246.048,487.089,246.074,487.243,246.104,487.396z"/>
			<path style="fill:#FFFFFF;" d="M246.664,488.97c-0.004-0.006-0.006-0.015-0.01-0.022
				C246.658,488.956,246.661,488.964,246.664,488.97z"/>
			<path style="fill:#FFFFFF;" d="M246.612,488.865c-0.015-0.028-0.029-0.059-0.043-0.087
				C246.583,488.809,246.597,488.837,246.612,488.865z"/>
			<path style="fill:#FFFFFF;" d="M246.262,488.002c0.083,0.262,0.183,0.516,0.299,0.758c-0.118-0.248-0.216-0.503-0.297-0.758
				C246.263,488.002,246.263,488.002,246.262,488.002z"/>
			<path style="fill:#FFFFFF;" d="M252.585,480.352c0.328,0,0.57,0.027,0.847,0.073l0.078-0.498c0,0-0.765-0.237-1.772-0.154
				l-0.079-0.272c0.314-0.065,0.548-0.343,0.548-0.676c0-0.381-0.31-0.69-0.691-0.69c-0.382,0-0.691,0.309-0.691,0.69
				c0,0.333,0.234,0.612,0.547,0.676l0.088,0.303c-1.069,0.146-1.92,0.565-1.92,0.565l0.15,0.462
				c0.647-0.216,1.207-0.347,1.716-0.402C251.904,480.375,252.28,480.352,252.585,480.352z"/>
			<path style="fill:#FFFFFF;" d="M246.652,482.878l0.004-0.006c0.026-0.032,0.05-0.064,0.074-0.093l-0.205-0.148l-0.319-0.233
				c-0.018,0.025-0.52,0.487-0.917,1.34c-0.016-0.027-0.037-0.054-0.059-0.079c-0.118-0.129-0.284-0.195-0.497-0.192
				c-0.002,0-0.005,0-0.01,0c-0.129,0-0.22-0.044-0.278-0.096c0.057-0.074,0.094-0.168,0.094-0.27c0-0.242-0.198-0.438-0.438-0.438
				c-0.242,0-0.437,0.197-0.437,0.438c0,0.242,0.195,0.437,0.437,0.437c0.038,0,0.073-0.006,0.109-0.013
				c0.109,0.118,0.278,0.224,0.529,0.219c0.13-0.001,0.223,0.032,0.287,0.101c0.072,0.079,0.096,0.194,0.104,0.28
				c-0.001,0.001-0.001,0.004-0.003,0.004c-0.284,0.779-0.203,1.747-0.203,1.747l0.691,0.027c0.015-0.352,0.066-0.969,0.243-1.459
				C246.204,483.494,246.635,482.901,246.652,482.878z"/>
			<path style="fill:#FFFFFF;" d="M258.604,480.931c-0.242,0-0.44,0.195-0.44,0.437c0,0.038,0.006,0.073,0.016,0.109
				c-0.12,0.109-0.223,0.281-0.22,0.531c0.001,0.128-0.032,0.222-0.101,0.284c-0.056,0.05-0.125,0.076-0.193,0.093
				c-0.515-0.721-1.15-1.162-1.15-1.162l-0.496,0.534c0.376,0.339,0.758,0.768,1.13,1.301c0.258,0.369,0.524,0.845,0.743,1.317
				l0.67-0.317c0,0-0.306-0.756-0.737-1.434c0.076-0.026,0.151-0.066,0.217-0.125c0.132-0.118,0.195-0.286,0.192-0.496
				c-0.001-0.137,0.044-0.229,0.098-0.289c0.073,0.056,0.167,0.093,0.27,0.093c0.241,0,0.438-0.197,0.438-0.438
				S258.845,480.931,258.604,480.931z"/>
			<path style="fill:#FFFFFF;" d="M256.866,486.951c-0.923,0.449-2.439,1.042-4.437,1.322c-0.784,0.107-1.544,0.148-2.244,0.148
				c-0.909,0-1.713-0.067-2.33-0.145c-0.704-0.089-1.254-0.198-1.591-0.273c0.081,0.255,0.178,0.51,0.297,0.758
				c0.003,0.006,0.005,0.013,0.009,0.018c0.013,0.028,0.028,0.059,0.043,0.087c0.013,0.029,0.028,0.057,0.043,0.083
				c0.004,0.007,0.006,0.016,0.01,0.022c0.199,0.372,0.437,0.716,0.708,1.013c0.942,1.031,1.902,1.193,1.91,1.195l0.016,0.003
				l0.013,0.005c0.008,0.002,0.859,0.277,2.153,0.277c1.273,0,2.521-0.258,3.712-0.763c0.881-0.45,1.715-1.136,2.129-1.747
				c0.32-0.472,0.551-0.978,0.687-1.5c0.072-0.28,0.129-0.725,0.096-1.195C257.83,486.433,257.42,486.682,256.866,486.951z"/>
			<path style="fill:#FFFFFF;" d="M246.949,483.095c-0.027,0.039-0.427,0.605-0.742,1.475c-0.237,0.652-0.227,1.599-0.227,1.61
				v0.001c0,0.222,0.012,0.443,0.038,0.66c0,0.006,0,0.009,0.001,0.012c0.003,0.028,0.007,0.055,0.01,0.083
				c0.02,0.151,0.045,0.304,0.077,0.459c0.459,0.117,3.192,0.754,6.246,0.328c1.916-0.266,3.369-0.831,4.252-1.26
				c0.734-0.356,1.205-0.679,1.388-0.81c-0.181-0.673-0.681-1.727-1.139-2.385c-1.313-1.875-2.728-2.356-3.455-2.476
				c-0.277-0.045-0.498-0.071-0.813-0.071c-0.293,0-0.656,0.022-1.14,0.073c-0.486,0.051-1.028,0.179-1.656,0.391
				c-0.883,0.294-1.68,0.758-2.308,1.34l-0.021,0.02C247.366,482.631,247.172,482.812,246.949,483.095z M254.976,482.659
				c0.629,0,1.14,0.51,1.14,1.14s-0.512,1.141-1.14,1.141c-0.629,0-1.14-0.511-1.14-1.141S254.348,482.659,254.976,482.659z
				 M249.583,482.614c1.019,0,1.843,0.825,1.843,1.842c0,1.019-0.824,1.842-1.843,1.842c-1.017,0-1.842-0.823-1.842-1.842
				C247.741,483.439,248.566,482.614,249.583,482.614z"/>
		</g>
	</g>
</g>
</svg>
